<svg width="64" height="64" viewBox="0 0 64 64" fill="none" xmlns="http://www.w3.org/2000/svg">
<path d="M60.9789 35.7774L59.5572 34.3313L58.9746 33.7716C59.7248 31.4711 60.1485 29.0766 60.2331 26.6582C60.2331 21.7097 58.2688 16.9639 54.7723 13.4649C51.2758 9.96577 46.5335 8 41.5887 8H33.0123C32.0451 8 31.0943 8.23323 30.2389 8.67636C29.1949 8.41981 28.1368 8.23323 27.0694 8.11661H25.2749C20.3301 8.11661 15.5878 10.0824 12.0913 13.5815C8.59481 17.0806 6.6305 21.8263 6.6305 26.7748V31.6726L3.85715 34.3547C2.96702 35.2561 2.36257 36.4003 2.11955 37.6441C1.87654 38.8878 2.00578 40.1756 2.49106 41.3462C2.97635 42.5167 3.7961 43.5178 4.84755 44.2241C5.89901 44.9304 7.13539 45.3103 8.40172 45.3163C8.67206 45.3397 8.94473 45.3397 9.21741 45.3163C9.50639 46.3962 10.0681 47.3827 10.8488 48.185C11.9259 49.2325 13.3364 49.8681 14.834 49.9809C14.9634 51.4847 15.6147 52.8957 16.6752 53.9691C17.7381 55.0406 19.155 55.6874 20.6604 55.7882C20.7715 57.2921 21.4163 58.7066 22.4782 59.7764C23.5969 60.9041 25.0952 61.5743 26.6809 61.6562C28.2666 61.7382 29.8259 61.226 31.0546 60.2196L32.9657 62.1087C33.5613 62.7081 34.2694 63.1838 35.0493 63.5083C35.8292 63.8329 36.6656 64 37.5103 64C38.3549 64 39.1913 63.8329 39.9712 63.5083C40.7511 63.1838 41.4592 62.7081 42.0548 62.1087C43.1478 61.0463 43.8115 59.6182 43.9193 58.0972C45.4246 57.9963 46.8415 57.3495 47.9045 56.278C48.9429 55.2039 49.5771 53.8027 49.699 52.3132C51.2017 52.1837 52.6117 51.5319 53.6843 50.4707C54.536 49.6207 55.1264 48.5442 55.3856 47.3687C56.3993 47.5448 57.4409 47.4665 58.417 47.1409C59.3932 46.8152 60.2734 46.2525 60.9789 45.5029C61.6194 44.8657 62.1277 44.108 62.4746 43.2735C62.8214 42.4389 63 41.544 63 40.6401C63 39.7363 62.8214 38.8414 62.4746 38.0068C62.1277 37.1723 61.6194 36.4146 60.9789 35.7774ZM33.0123 12.6645H41.5887C45.2973 12.6645 48.854 14.1389 51.4764 16.7632C54.0988 19.3875 55.572 22.9468 55.572 26.6582C55.531 27.7647 55.3906 28.8653 55.1525 29.9467L45.574 20.3377C45.3561 20.1217 45.0978 19.9507 44.8139 19.8347C44.53 19.7186 44.226 19.6597 43.9193 19.6614H33.4784C32.9555 19.6578 32.4466 19.8303 32.0335 20.1511L27.3724 23.7195C26.7813 24.1224 26.0593 24.2856 25.3526 24.1758C24.6458 24.0661 24.0071 23.6918 23.5658 23.1286C23.1245 22.5654 22.9135 21.8554 22.9755 21.1424C23.0375 20.4294 23.3679 19.7666 23.8999 19.2882L31.9402 12.9911C32.2439 12.7512 32.6266 12.6346 33.0123 12.6645ZM7.14322 40.162C6.81847 39.8233 6.63714 39.372 6.63714 38.9026C6.63714 38.4332 6.81847 37.9819 7.14322 37.6432L10.6157 34.1681C10.7807 34.0028 10.977 33.8723 11.1931 33.7841C11.4093 33.696 11.6409 33.6521 11.8742 33.655C12.1041 33.6526 12.332 33.6968 12.5443 33.785C12.7566 33.8732 12.9488 34.0035 13.1094 34.1681C13.2757 34.3329 13.4077 34.5291 13.4978 34.7452C13.5879 34.9614 13.6343 35.1933 13.6343 35.4275C13.6343 35.6617 13.5879 35.8936 13.4978 36.1098C13.4077 36.326 13.2757 36.5221 13.1094 36.6869L9.66021 40.162C9.31651 40.4767 8.86755 40.6512 8.40172 40.6512C7.93588 40.6512 7.48692 40.4767 7.14322 40.162ZM13.6221 43.5671C13.6214 43.3352 13.6686 43.1057 13.7608 42.8929C13.8531 42.6802 13.9884 42.4889 14.1582 42.331L17.6074 38.8559C17.9381 38.5219 18.3878 38.333 18.8576 38.3309C19.3275 38.3287 19.7789 38.5134 20.1127 38.8443C20.4465 39.1752 20.6352 39.6253 20.6374 40.0955C20.6396 40.5657 20.4551 41.0175 20.1244 41.3515L16.6519 44.8266C16.4435 45.0286 16.1894 45.177 15.9112 45.2592C15.6329 45.3414 15.339 45.3549 15.0544 45.2985C14.7698 45.2421 14.5032 45.1175 14.2773 44.9354C14.0514 44.7533 13.873 44.5191 13.7573 44.2528C13.6654 44.0361 13.6193 43.8026 13.6221 43.5671ZM19.9612 48.2317L23.4338 44.7566C23.5987 44.5913 23.795 44.4608 24.0111 44.3726C24.2273 44.2845 24.4589 44.2406 24.6922 44.2435C24.9221 44.2411 25.15 44.2853 25.3623 44.3735C25.5746 44.4617 25.7669 44.592 25.9274 44.7566C26.0937 44.9214 26.2257 45.1176 26.3158 45.3337C26.4059 45.5499 26.4523 45.7818 26.4523 46.016C26.4523 46.2502 26.4059 46.4821 26.3158 46.6983C26.2257 46.9145 26.0937 47.1106 25.9274 47.2754L22.4782 50.6572C22.1413 50.9754 21.6937 51.1495 21.2305 51.1428C20.7673 51.136 20.325 50.9488 19.9974 50.621C19.6698 50.2932 19.4828 49.8506 19.4761 49.3871C19.4693 48.9235 19.6434 48.4756 19.9612 48.1384V48.2317ZM25.7876 56.5579C25.6213 56.3931 25.4893 56.1969 25.3992 55.9807C25.3091 55.7646 25.2627 55.5327 25.2627 55.2985C25.2627 55.0642 25.3091 54.8323 25.3992 54.6162C25.4893 54.4 25.6213 54.2038 25.7876 54.039L29.2368 50.5873C29.5705 50.2513 30.022 50.0589 30.4953 50.0509C30.7281 50.0521 30.9584 50.0992 31.173 50.1896C31.3875 50.2799 31.5822 50.4117 31.7459 50.5774C31.9095 50.7431 32.0389 50.9395 32.1266 51.1553C32.2144 51.3711 32.2587 51.6021 32.2572 51.835C32.2573 52.3005 32.0769 52.7479 31.7538 53.0828L28.2813 56.5579C27.9348 56.8691 27.4809 57.0334 27.0156 57.016C26.5503 56.9986 26.1099 56.8009 25.7876 56.4646V56.5579ZM56.0847 42.8441C55.2117 42.6088 54.4108 42.16 53.7542 41.5381V41.4214L49.0931 36.7569C48.6542 36.3177 48.059 36.071 47.4384 36.071C46.8178 36.071 46.2226 36.3177 45.7837 36.7569C45.3448 37.1961 45.0983 37.7917 45.0983 38.4128C45.0983 39.0339 45.3448 39.6296 45.7837 40.0687L50.4448 44.7333C50.7257 45.0733 50.8698 45.5058 50.8489 45.9465C50.8281 46.3871 50.6438 46.8041 50.3321 47.1161C50.0204 47.428 49.6037 47.6124 49.1634 47.6332C48.7231 47.6541 48.2908 47.5099 47.9511 47.2288C47.7378 47.0007 47.4809 46.8178 47.1957 46.6909C46.9105 46.5639 46.6027 46.4956 46.2906 46.4899C45.9784 46.4841 45.6684 46.5412 45.3787 46.6575C45.089 46.7739 44.8256 46.9473 44.6041 47.1674C44.3826 47.3876 44.2074 47.6499 44.0891 47.939C43.9707 48.2281 43.9116 48.538 43.9151 48.8503C43.9186 49.1627 43.9847 49.4712 44.1095 49.7575C44.2344 50.0439 44.4153 50.3022 44.6417 50.5173C44.8073 50.6801 44.9389 50.8743 45.0286 51.0885C45.1184 51.3028 45.1647 51.5328 45.1647 51.7651C45.1647 51.9974 45.1184 52.2274 45.0286 52.4416C44.9389 52.6558 44.8073 52.85 44.6417 53.0128C44.477 53.1793 44.281 53.3114 44.065 53.4015C43.849 53.4917 43.6173 53.5381 43.3832 53.5381C43.1492 53.5381 42.9175 53.4917 42.7015 53.4015C42.4854 53.3114 42.2894 53.1793 42.1247 53.0128C41.6881 52.5784 41.0974 52.3346 40.4817 52.3346C39.866 52.3346 39.2753 52.5784 38.8387 53.0128C38.4046 53.4498 38.161 54.0409 38.161 54.6571C38.161 55.2732 38.4046 55.8644 38.8387 56.3013C39.1724 56.6323 39.3612 57.0823 39.3634 57.5525C39.3656 58.0227 39.181 58.4745 38.8503 58.8085C38.5196 59.1426 38.0699 59.3314 37.6001 59.3336C37.1302 59.3358 36.6788 59.1511 36.345 58.8202L34.4805 56.9544L35.1331 56.3247C35.7328 55.7266 36.2086 55.016 36.5332 54.2336C36.8579 53.4512 37.025 52.6123 37.025 51.7651C37.025 50.9179 36.8579 50.079 36.5332 49.2966C36.2086 48.5141 35.7328 47.8035 35.1331 47.2055C34.051 46.0966 32.5996 45.4243 31.0546 45.3163C30.9435 43.8125 30.2988 42.398 29.2368 41.3282C28.1635 40.2889 26.7633 39.6543 25.2749 39.5323C25.1456 38.0285 24.4942 36.6175 23.4338 35.5441C22.7442 34.8331 21.8988 34.2923 20.9645 33.9645C20.0302 33.6366 19.0325 33.5307 18.0502 33.655C17.6682 32.1966 16.776 30.9237 15.5358 30.0677C14.2955 29.2117 12.7896 28.8295 11.2916 28.9904V26.6582C11.2901 23.0145 12.7089 19.514 15.2462 16.9008C17.7834 14.2876 21.2392 12.7678 24.8787 12.6645L21.1498 15.5799C19.6213 16.8134 18.6386 18.5989 18.4139 20.5511C18.1893 22.5032 18.7405 24.4655 19.9488 26.0145C21.1571 27.5635 22.9256 28.575 24.8725 28.8307C26.8194 29.0863 28.7887 28.5657 30.3555 27.3812L34.2708 24.3259H42.9637L52.1461 33.655L57.6695 39.1591C58.056 39.5877 58.2699 40.1445 58.2699 40.7218C58.2699 41.2991 58.056 41.8558 57.6695 42.2844C57.4681 42.5066 57.2085 42.668 56.9203 42.7505C56.632 42.8329 56.3265 42.833 56.0381 42.7508L56.0847 42.8441Z" fill="#7D7D7D"/>
</svg>
