<svg width="78" height="70" viewBox="0 0 78 70" fill="none" xmlns="http://www.w3.org/2000/svg">
<path d="M38.9999 48.6661C42.2044 48.6661 44.7999 46.5027 44.7999 43.8347C44.7999 41.1667 42.2044 39.0004 38.9999 39.0004C35.7954 39.0004 33.2 36.837 33.2 34.1661C33.2 31.4981 35.7954 29.3347 38.9999 29.3347M38.9999 48.6661C35.7954 48.6661 33.2 46.5027 33.2 43.8347M38.9999 48.6661V50.6004M38.9999 29.3347V27.4004M38.9999 29.3347C42.2044 29.3347 44.7999 31.4981 44.7999 34.1661" stroke="#7D7D7D" stroke-width="4" stroke-linecap="round"/>
<path d="M53.5 13.8802C49.0933 11.3308 44.0909 9.99219 39 10C22.9833 10 10 22.9833 10 39C10 43.64 11.0904 48.0248 13.0247 51.9137C13.5409 52.9461 13.712 54.1264 13.4133 55.2429L11.6878 61.6983C11.5175 62.3369 11.5182 63.0091 11.6897 63.6475C11.8611 64.2858 12.1974 64.8678 12.6648 65.3352C13.1322 65.8026 13.7142 66.1388 14.3525 66.3103C14.9908 66.4818 15.663 66.4824 16.3017 66.3122L22.7571 64.5867C23.8777 64.3047 25.0627 64.4418 26.0892 64.9724C30.0997 66.9694 34.5198 68.0059 39 68C55.0167 68 67.9999 55.0167 67.9999 39C67.9999 33.7191 66.5876 28.763 64.1197 24.5" stroke="#7D7D7D" stroke-width="4" stroke-linecap="round"/>
</svg>
