<svg width="62" height="62" viewBox="0 0 62 62" fill="none" xmlns="http://www.w3.org/2000/svg">
<path fill-rule="evenodd" clip-rule="evenodd" d="M0 31C0 13.8849 13.8849 0 31 0C48.1151 0 62 13.8849 62 31C62 48.1151 48.1151 62 31 62C13.8849 62 0 48.1151 0 31ZM31 4.76923C16.5189 4.76923 4.76923 16.5189 4.76923 31C4.76923 45.4811 16.5189 57.2308 31 57.2308C45.4811 57.2308 57.2308 45.4811 57.2308 31C57.2308 16.5189 45.4811 4.76923 31 4.76923Z" fill="#7D7D7D"/>
<path fill-rule="evenodd" clip-rule="evenodd" d="M30.375 9C31.6867 9 32.75 10.1396 32.75 11.5455V31.9091H44.625C45.9367 31.9091 47 33.0487 47 34.4545C47 35.8604 45.9367 37 44.625 37H30.375C29.0633 37 28 35.8604 28 34.4545V11.5455C28 10.1396 29.0633 9 30.375 9Z" fill="#7D7D7D"/>
</svg>
