<svg width="68" height="65" viewBox="0 0 68 65" fill="none" xmlns="http://www.w3.org/2000/svg">
<path d="M44.9939 42.2283C44.9939 39.132 36.22 36.6242 25.3968 36.6242M44.9939 42.2283C44.9939 45.3245 36.22 47.8323 25.3968 47.8323C14.5735 47.8323 5.7996 45.3245 5.7996 42.2283M44.9939 42.2283V56.0619C44.9939 59.2534 36.22 61.8424 25.3968 61.8424C14.5735 61.8424 5.7996 59.2562 5.7996 56.0619V42.2283M44.9939 42.2283C55.6996 42.2283 64.5911 39.4627 64.5911 36.6242V8.60404M25.3968 36.6242C14.5735 36.6242 5.7996 39.132 5.7996 42.2283M25.3968 36.6242C13.0282 36.6242 3 33.8586 3 31.0202V17.0101M25.3968 11.4061C13.0282 11.4061 3 13.9139 3 17.0101M3 17.0101C3 20.1063 13.0282 22.6141 25.3968 22.6141C25.3968 25.4526 34.5039 28.2182 45.2095 28.2182C55.9124 28.2182 64.5911 25.4526 64.5911 22.6141M64.5911 8.60404C64.5911 5.50781 55.9124 3 45.2095 3C34.5039 3 25.8279 5.50781 25.8279 8.60404M64.5911 8.60404C64.5911 11.7003 55.9124 14.2081 45.2095 14.2081C34.5067 14.2081 25.8279 11.7003 25.8279 8.60404M25.8279 8.60404V37.0894" stroke="#7D7D7D" stroke-width="5"/>
</svg>
