<svg width="47" height="55" viewBox="0 0 47 55" fill="none" xmlns="http://www.w3.org/2000/svg">
<path d="M43.915 22.9357L7.65347 0.736311C6.89302 0.272318 6.02318 0.0185749 5.13273 0.000981576C4.24229 -0.0166118 3.36312 0.202574 2.58496 0.636168C1.80681 1.06976 1.15753 1.70224 0.703398 2.46904C0.249266 3.23584 0.0065418 4.10951 0 5.00087V49.3997C0.0065418 50.2911 0.249266 51.1647 0.703398 51.9315C1.15753 52.6983 1.80681 53.3308 2.58496 53.7644C3.36312 54.198 4.24229 54.4172 5.13273 54.3996C6.02318 54.382 6.89302 54.1283 7.65347 53.6643L43.915 31.4649C44.6461 31.0194 45.2505 30.3931 45.6698 29.6462C46.0892 28.8993 46.3095 28.057 46.3095 27.2003C46.3095 26.3436 46.0892 25.5012 45.6698 24.7544C45.2505 24.0075 44.6461 23.3812 43.915 22.9357ZM6.04023 47.5659V6.83466L39.3017 27.2003L6.04023 47.5659Z" fill="#7D7D7D"/>
</svg>
