<svg width="73" height="53" viewBox="0 0 73 53" fill="none" xmlns="http://www.w3.org/2000/svg">
<path d="M45.9014 0C42.4232 0 39.0874 1.3873 36.6279 3.8567C34.1684 6.32611 32.7867 9.67534 32.7867 13.1676C32.7867 16.6599 34.1684 20.0091 36.6279 22.4785C39.0874 24.9479 42.4232 26.3352 45.9014 26.3352C49.3796 26.3352 52.7154 24.9479 55.1749 22.4785C57.6343 20.0091 59.0161 16.6599 59.0161 13.1676C59.0161 9.67534 57.6343 6.32611 55.1749 3.8567C52.7154 1.3873 49.3796 0 45.9014 0ZM45.9014 6.25461C46.8056 6.25461 47.7009 6.43342 48.5362 6.78083C49.3716 7.12824 50.1306 7.63745 50.77 8.27938C51.4093 8.92131 51.9165 9.6834 52.2625 10.5221C52.6085 11.3608 52.7866 12.2598 52.7866 13.1676C52.7866 14.0754 52.6085 14.9744 52.2625 15.8131C51.9165 16.6518 51.4093 17.4139 50.77 18.0558C50.1306 18.6978 49.3716 19.207 48.5362 19.5544C47.7009 19.9018 46.8056 20.0806 45.9014 20.0806C44.9972 20.0806 44.1019 19.9018 43.2665 19.5544C42.4312 19.207 41.6722 18.6978 41.0328 18.0558C40.3935 17.4139 39.8863 16.6518 39.5403 15.8131C39.1943 14.9744 39.0162 14.0754 39.0162 13.1676C39.0162 11.3342 39.7416 9.57582 41.0328 8.27938C42.324 6.98294 44.0753 6.25461 45.9014 6.25461ZM9.83601 9.87571V19.7514H0V26.3352H9.83601V36.2109H16.3934V26.3352H26.2294V19.7514H16.3934V9.87571H9.83601ZM45.9014 29.6271C37.1473 29.6271 19.672 34.0053 19.672 42.7947V52.6704H72.1308V42.7947C72.1308 34.0053 54.6554 29.6271 45.9014 29.6271ZM45.9014 35.8817C55.639 35.8817 65.9013 40.6879 65.9013 42.7947V46.4158H25.9015V42.7947C25.9015 40.6879 36.0654 35.8817 45.9014 35.8817Z" fill="#7D7D7D"/>
</svg>
