<svg width="73" height="72" viewBox="0 0 73 72" fill="none" xmlns="http://www.w3.org/2000/svg">
<path d="M51.9189 45.1321H48.6668L47.5141 44.0243C51.6879 39.1994 53.9818 33.0395 53.9772 26.669C53.9772 21.3943 52.4079 16.2382 49.4677 11.8525C46.5275 7.4668 42.3484 4.04857 37.459 2.03006C32.5696 0.0115552 27.1894 -0.516579 21.9988 0.512448C16.8083 1.54148 12.0404 4.08145 8.29823 7.81117C4.55603 11.5409 2.00757 16.2928 0.9751 21.4661C-0.0573691 26.6394 0.472531 32.0016 2.49779 36.8747C4.52305 41.7478 7.95271 45.913 12.3531 48.8434C16.7534 51.7738 21.9268 53.3379 27.2191 53.3379C33.8469 53.3379 39.9395 50.9172 44.6325 46.8963L45.744 48.0452V51.2865L66.3271 71.76L72.4609 65.6467L51.9189 45.1321ZM27.2191 45.1321C16.9687 45.1321 8.69422 36.8852 8.69422 26.669C8.69422 16.4527 16.9687 8.20584 27.2191 8.20584C37.4695 8.20584 45.744 16.4527 45.744 26.669C45.744 36.8852 37.4695 45.1321 27.2191 45.1321Z" fill="#7D7D7D"/>
</svg>
