<svg width="31" height="24" viewBox="0 0 31 24" fill="none" xmlns="http://www.w3.org/2000/svg">
<path d="M14.877 4.2C13.6908 4.2 12.5533 4.60562 11.7146 5.32764C10.8759 6.04965 10.4047 7.02892 10.4047 8.05C10.4047 9.07108 10.8759 10.0503 11.7146 10.7724C12.5533 11.4944 13.6908 11.9 14.877 11.9C16.0631 11.9 17.2006 11.4944 18.0393 10.7724C18.878 10.0503 19.3492 9.07108 19.3492 8.05C19.3492 7.02892 18.878 6.04965 18.0393 5.32764C17.2006 4.60562 16.0631 4.2 14.877 4.2ZM7.84918 8.05C7.84918 6.44544 8.5896 4.9066 9.90756 3.772C11.2255 2.63741 13.0131 2 14.877 2C16.7408 2 18.5284 2.63741 19.8463 3.772C21.1643 4.9066 21.9047 6.44544 21.9047 8.05C21.9047 9.65456 21.1643 11.1934 19.8463 12.328C18.5284 13.4626 16.7408 14.1 14.877 14.1C13.0131 14.1 11.2255 13.4626 9.90756 12.328C8.5896 11.1934 7.84918 9.65456 7.84918 8.05ZM3.37695 20.7C3.37695 19.2413 4.05007 17.8424 5.24822 16.8109C6.44636 15.7795 8.0714 15.2 9.76584 15.2H19.9881C21.6825 15.2 23.3075 15.7795 24.5057 16.8109C25.7038 17.8424 26.377 19.2413 26.377 20.7V24H3.37695V20.7ZM9.76584 17.4C8.74918 17.4 7.77416 17.7477 7.05527 18.3665C6.33638 18.9854 5.93251 19.8248 5.93251 20.7V21.8H23.8214V20.7C23.8214 19.8248 23.4175 18.9854 22.6986 18.3665C21.9798 17.7477 21.0047 17.4 19.9881 17.4H9.76584Z" fill="#353535"/>
</svg>
