<svg width="419" height="240" viewBox="0 0 419 240" fill="none" xmlns="http://www.w3.org/2000/svg">
<path d="M390.254 42.4533L391.792 40.0882L397.116 32.2835L410.601 12.417V12.1805L412.021 10.052L419 0.000488281H389.781C387.376 0.142138 385.014 0.702394 382.802 1.65603C379.153 3.33933 376.041 5.99974 373.811 9.34246L373.457 9.81547L372.274 11.7075L358.196 32.2835L346.012 50.3762L335.247 34.5303L333.709 32.2835L319.041 10.525L318.686 10.052L317.385 8.15993C315.407 5.62243 312.878 3.56877 309.987 2.15495C307.097 0.741119 303.923 0.00431044 300.705 0.000488281L273.024 0.000488281L279.649 9.81547L279.885 10.1702L281.305 12.2988L294.909 32.2835L300.232 40.0882L301.533 42.0985L301.77 42.4533L315.61 62.7927L315.847 63.1475L326.612 79.1116L315.847 94.8393V95.194L301.888 115.534L294.909 125.703L281.423 145.806L273.024 157.986H300.705C304.167 157.988 307.575 157.136 310.629 155.506C313.683 153.877 316.288 151.52 318.213 148.644L333.828 125.703L335.247 123.575L346.012 107.729L358.196 125.703L373.693 148.644C375.645 151.522 378.271 153.878 381.344 155.507C384.416 157.135 387.841 157.986 391.319 157.986H418.882L410.601 145.806L396.997 125.703L390.136 115.534L376.296 95.194L365.412 78.9934L376.414 62.7927L390.254 42.4533V42.4533Z" fill="black"/>
<path d="M130.952 0.000280287V157.986H105.519C103.236 157.973 101.01 157.273 99.1311 155.976V155.976C97.9441 155.087 96.8359 154.098 95.8189 153.019L94.9908 151.837L92.9798 148.881L77.2466 125.703L56.545 95.1938L34.6604 62.7925L32.2945 59.3632V157.986H0V0.000280287H23.8956C26.9957 -0.0205317 29.9916 1.11833 32.2945 3.19311V3.19311C33.2514 4.00983 34.1233 4.92106 34.897 5.91292L36.908 8.75099L52.8778 32.2833L73.4611 62.7925L95.3457 95.1938L99.1311 100.752V0.000280287H130.952Z" fill="black"/>
<path d="M184.776 32.2835V62.7927H239.783V95.194H184.776V125.703H270.067V126.295L252.559 152.074L248.537 157.986H152.482V0.000488281H248.537L252.559 5.91313L270.067 31.6922V32.2835H184.776Z" fill="black"/>
<path d="M40.4572 233.669V239.108H10.292V190.27H40.3389V195.591H16.9165V211.91H35.962V217.113H16.9165V233.669H40.4572Z" fill="black"/>
<path d="M117.349 190.27V239.108H114.037L112.736 238.872C112.324 238.627 111.963 238.306 111.671 237.926L83.3984 201.149C83.383 201.703 83.4226 202.258 83.5167 202.805V239.108H77.7202V190.27H81.8605L82.452 190.506L82.9252 190.861L83.3984 191.334L111.671 228.229C111.671 227.638 111.553 227.046 111.553 226.455V190.27H117.349Z" fill="black"/>
<path d="M187.971 233.669V239.108H157.805V190.27H187.971V195.591H164.43V211.91H183.475V217.113H164.43V233.669H187.971Z" fill="black"/>
<path d="M261.313 239.108H255.517C254.979 239.13 254.444 239.011 253.967 238.762C253.489 238.513 253.086 238.143 252.796 237.689L240.139 220.306C239.829 219.794 239.377 219.383 238.837 219.123C238.209 218.834 237.516 218.712 236.826 218.769H231.858V239.108H225.233V190.27H239.074C241.746 190.242 244.41 190.56 247 191.216C249.065 191.708 251 192.635 252.678 193.936C254.068 195.078 255.164 196.538 255.872 198.193C256.599 199.954 256.962 201.845 256.936 203.751C256.98 205.405 256.699 207.052 256.108 208.599C255.627 210.097 254.819 211.471 253.742 212.62C252.703 213.891 251.415 214.937 249.957 215.694C248.38 216.606 246.66 217.246 244.87 217.586C245.783 218.101 246.555 218.832 247.118 219.715L261.313 239.108ZM238.719 213.92C240.442 213.96 242.16 213.72 243.806 213.211C245.178 212.86 246.44 212.169 247.473 211.2C248.48 210.44 249.257 209.417 249.72 208.244C250.258 206.971 250.539 205.605 250.549 204.224C250.64 202.979 250.417 201.731 249.901 200.594C249.384 199.458 248.59 198.469 247.591 197.72C245.698 196.182 242.859 195.473 239.074 195.473H231.858V213.92H238.719Z" fill="black"/>
<path d="M335.248 215.576V234.378C332.825 236.111 330.153 237.467 327.322 238.399C324.367 239.278 321.297 239.716 318.214 239.7C314.575 239.769 310.959 239.126 307.567 237.808C304.508 236.728 301.722 234.992 299.405 232.723C297.203 230.443 295.474 227.75 294.318 224.8C293.068 221.596 292.426 218.187 292.425 214.748C292.378 211.239 292.98 207.751 294.2 204.46C295.335 201.534 297.068 198.877 299.288 196.657C301.508 194.438 304.167 192.706 307.094 191.571C310.403 190.253 313.943 189.61 317.504 189.679C319.287 189.708 321.066 189.866 322.827 190.152C324.398 190.405 325.942 190.801 327.441 191.334C328.811 191.861 330.12 192.535 331.344 193.344C332.581 194.036 333.732 194.869 334.775 195.828L332.882 198.902C332.76 199.121 332.591 199.308 332.386 199.452C332.181 199.595 331.946 199.69 331.699 199.73C331.432 199.778 331.158 199.771 330.894 199.71C330.63 199.649 330.381 199.535 330.162 199.375L328.269 198.311C327.508 197.759 326.671 197.321 325.785 197.01C324.599 196.511 323.372 196.116 322.117 195.828C320.514 195.569 318.891 195.451 317.267 195.473C314.726 195.461 312.202 195.901 309.815 196.774C307.664 197.653 305.728 198.983 304.137 200.676C302.509 202.41 301.26 204.464 300.469 206.707C299.63 209.303 299.23 212.021 299.287 214.748C299.198 217.526 299.64 220.295 300.588 222.908C301.35 225.199 302.602 227.297 304.255 229.057C305.893 230.804 307.919 232.14 310.17 232.959C312.665 233.888 315.315 234.329 317.977 234.26C320.05 234.292 322.118 234.054 324.128 233.55C325.902 233.045 327.61 232.33 329.215 231.422V220.661H321.644C321.452 220.677 321.258 220.654 321.075 220.593C320.892 220.532 320.724 220.434 320.58 220.306C320.46 220.18 320.368 220.031 320.307 219.869C320.246 219.706 320.218 219.533 320.225 219.36V215.576H335.248Z" fill="black"/>
<path d="M390.61 219.596V239.108H383.985V219.596L366.123 190.269H371.919C372.158 190.231 372.404 190.254 372.631 190.337C372.859 190.419 373.062 190.559 373.22 190.743C373.621 191.011 373.947 191.377 374.167 191.807L385.287 210.727L386.47 212.974L387.416 215.103C387.64 214.374 387.917 213.663 388.244 212.974C388.547 212.202 388.903 211.451 389.309 210.727L400.428 191.807L401.256 190.743C401.448 190.571 401.673 190.441 401.917 190.36C402.161 190.278 402.42 190.248 402.676 190.269H408.472L390.61 219.596Z" fill="black"/>
</svg>
