<svg width="82" height="82" viewBox="0 0 82 82" fill="none" xmlns="http://www.w3.org/2000/svg">
<path d="M29.6289 55.0299L33.7289 56.3752L36.8359 53.1721V48.6877L32.0152 44.3955L27.9312 46.7979L27.7871 52.1631L29.6289 55.0299Z" fill="#71F697" stroke="black" stroke-miterlimit="10"/>
<path d="M14.4141 49.4882C15.0707 49.4882 15.6152 48.9437 15.6152 48.287V16.4159C15.6152 11.1468 19.8914 6.87061 25.1605 6.87061H32.5277C33.1844 6.87061 33.7289 6.32607 33.7289 5.66943C33.7289 5.01279 33.1844 4.46826 32.5277 4.46826H25.1605C18.5781 4.46826 13.2129 9.81748 13.2129 16.4159V48.287C13.2129 48.9437 13.7574 49.4882 14.4141 49.4882Z" fill="#71F697"/>
<path d="M58.8574 4.64453C58.8414 4.64453 58.8254 4.64453 58.8094 4.62852C58.6012 4.38828 58.409 4.16406 58.1848 3.93984C55.6543 1.39336 52.323 0 48.7996 0C42.5855 0 37.3805 4.29219 35.9391 10.0578H25.1445C21.6531 10.0578 18.8023 12.9086 18.8023 16.4V61.0516C18.8023 64.543 21.6531 67.3937 25.1445 67.3937H56.8234C60.3148 67.3937 63.1656 64.543 63.1656 61.0516V27.7711C63.1656 27.1145 62.6211 26.5699 61.9645 26.5699C61.3078 26.5699 60.7633 27.1145 60.7633 27.7711V36.7879L56.4871 40.5996C55.7344 41.2723 54.8695 41.7687 53.9246 42.1051L37.6848 47.6945C36.5637 45.7246 34.4496 44.3953 32.0152 44.3953C28.4117 44.3953 25.4969 47.3262 25.4969 50.9137C25.4969 51.234 25.5289 51.5543 25.5609 51.8746L21.1887 53.3801V42.9059L40.7437 28.1875C43.2582 32.2074 46.0129 35.3785 47.3262 36.8199C48.0789 37.6688 49.5203 37.6688 50.273 36.8199C53.0117 33.841 61.9484 23.3668 62.0445 13.4211C62.0605 11.4352 61.6441 9.51328 60.8273 7.75156C64.1586 9.27305 66.3848 12.6043 66.3848 16.432V61.0836C66.3848 66.3527 62.1086 70.6289 56.8395 70.6289H25.1605C19.8914 70.6289 15.6152 66.3527 15.6152 61.0836V54.0367C15.6152 53.3801 15.0707 52.8355 14.4141 52.8355C13.7574 52.8355 13.2129 53.3801 13.2129 54.0367V61.0836C13.2129 67.666 18.5621 73.0312 25.1605 73.0312H30.1414V79.5977H26.9383C26.2816 79.5977 25.7371 80.1422 25.7371 80.7988C25.7371 81.4555 26.2816 82 26.9383 82H54.9656C55.6223 82 56.1668 81.4555 56.1668 80.7988C56.1668 80.1422 55.6223 79.5977 54.9656 79.5977H51.8586V72.9992H56.8395C63.4219 72.9992 68.7871 67.65 68.7871 61.0516V16.4C68.7871 10.5703 64.607 5.62148 58.8574 4.64453ZM25.1605 12.4602H25.9773V22.9184C25.9773 23.5109 25.4969 23.9914 24.9043 23.9914H21.2207V16.4C21.2207 14.2379 22.9824 12.4602 25.1605 12.4602ZM56.8395 64.9914H36.8359L34.7059 56.8555C35.827 56.359 36.7719 55.5422 37.4445 54.5492H60.7793V61.0516C60.7793 63.2297 59.0176 64.9914 56.8395 64.9914ZM54.7254 44.3633C55.9746 43.9309 57.1117 43.2742 58.1047 42.3934L60.7953 40.007V52.1629H38.4375C38.5176 51.7625 38.5656 51.3461 38.5656 50.9137C38.5656 50.5934 38.5336 50.273 38.5016 49.9527L54.7254 44.3633ZM32.0473 46.7977C34.3215 46.7977 36.1633 48.6395 36.1633 50.9137C36.1633 53.1879 34.3215 55.0297 32.0473 55.0297C29.773 55.0297 27.9312 53.1879 27.9312 50.9137C27.9152 48.6395 29.773 46.7977 32.0473 46.7977ZM26.3777 54.1328C27.4988 56.1027 29.6129 57.432 32.0473 57.432C32.1594 57.432 32.2715 57.432 32.3676 57.416L34.3535 64.9754H25.1605C22.9824 64.9754 21.2207 63.2137 21.2207 61.0355V55.8945L26.3777 54.1328ZM21.2207 26.4098H24.9043C25.4809 26.4098 26.0254 26.2656 26.5059 26.0094L32.5918 31.3266L21.2207 39.8949V26.4098ZM34.5457 29.8531L28.1234 24.2316C28.2836 23.8313 28.3797 23.3988 28.3797 22.9344V12.4602H35.6027C35.5867 12.7164 35.5707 12.9727 35.5707 13.2289C35.5707 17.6332 37.3164 22.1496 39.5266 26.0895L34.5457 29.8531ZM48.7996 34.866C46.4133 32.2234 37.957 22.1816 37.957 13.2449C37.957 7.27109 42.8258 2.40234 48.7996 2.40234C51.6824 2.40234 54.4051 3.55547 56.4711 5.6375C58.5531 7.73555 59.6742 10.4902 59.6422 13.3891C59.5621 22.2777 51.1699 32.2234 48.7996 34.866ZM49.4562 79.5977H32.5437V72.9992H49.4562V79.5977Z" fill="#424242"/>
<path d="M48.6874 6.58252C45.2121 6.58252 42.3933 9.40127 42.3933 12.8767C42.3933 16.3521 45.2121 19.1708 48.6874 19.1708C52.1628 19.1708 54.9816 16.3521 54.9816 12.8767C54.9816 9.40127 52.1468 6.58252 48.6874 6.58252ZM48.6874 16.7685C46.5414 16.7685 44.7957 15.0228 44.7957 12.8767C44.7957 10.7306 46.5253 8.96885 48.6874 8.96885C50.8496 8.96885 52.5792 10.7146 52.5792 12.8606C52.5792 15.0067 50.8335 16.7685 48.6874 16.7685Z" fill="#71F697"/>
</svg>
