<svg width="608" height="39" viewBox="0 0 608 39" fill="none" xmlns="http://www.w3.org/2000/svg">
<path d="M44.158 4.3C46.16 4.3 47.37 5.312 47.37 6.984C47.37 8.656 46.16 9.668 44.158 9.668H42.255V12H41.155V4.3H44.158ZM44.125 8.711C45.533 8.711 46.27 8.084 46.27 6.984C46.27 5.884 45.533 5.257 44.125 5.257H42.255V8.711H44.125ZM50.9013 6.115C52.4963 6.115 53.3983 6.885 53.3983 8.48V12H52.3973V11.23C52.0453 11.758 51.3963 12.066 50.4833 12.066C49.1633 12.066 48.3273 11.362 48.3273 10.35C48.3273 9.415 48.9323 8.645 50.6703 8.645H52.3423V8.436C52.3423 7.545 51.8253 7.028 50.7803 7.028C50.0873 7.028 49.3833 7.27 48.9323 7.655L48.4923 6.863C49.0973 6.379 49.9663 6.115 50.9013 6.115ZM50.6593 11.252C51.4513 11.252 52.0783 10.889 52.3423 10.218V9.404H50.7143C49.6693 9.404 49.3723 9.811 49.3723 10.306C49.3723 10.889 49.8563 11.252 50.6593 11.252ZM56.3646 7.149C56.7386 6.467 57.4646 6.115 58.4876 6.115V7.138C58.3996 7.127 58.3226 7.127 58.2456 7.127C57.1126 7.127 56.4086 7.82 56.4086 9.096V12H55.3526V6.17H56.3646V7.149ZM61.9013 6.115C63.4963 6.115 64.3983 6.885 64.3983 8.48V12H63.3973V11.23C63.0453 11.758 62.3963 12.066 61.4833 12.066C60.1633 12.066 59.3273 11.362 59.3273 10.35C59.3273 9.415 59.9323 8.645 61.6703 8.645H63.3423V8.436C63.3423 7.545 62.8253 7.028 61.7803 7.028C61.0873 7.028 60.3833 7.27 59.9323 7.655L59.4923 6.863C60.0973 6.379 60.9663 6.115 61.9013 6.115ZM61.6593 11.252C62.4513 11.252 63.0783 10.889 63.3423 10.218V9.404H61.7143C60.6693 9.404 60.3723 9.811 60.3723 10.306C60.3723 10.889 60.8563 11.252 61.6593 11.252ZM71.4297 6.115C73.0247 6.115 73.9267 6.885 73.9267 8.48V12H72.9257V11.23C72.5737 11.758 71.9247 12.066 71.0117 12.066C69.6917 12.066 68.8557 11.362 68.8557 10.35C68.8557 9.415 69.4607 8.645 71.1987 8.645H72.8707V8.436C72.8707 7.545 72.3537 7.028 71.3087 7.028C70.6157 7.028 69.9117 7.27 69.4607 7.655L69.0207 6.863C69.6257 6.379 70.4947 6.115 71.4297 6.115ZM71.1877 11.252C71.9797 11.252 72.6067 10.889 72.8707 10.218V9.404H71.2427C70.1977 9.404 69.9007 9.811 69.9007 10.306C69.9007 10.889 70.3847 11.252 71.1877 11.252ZM78.4541 12.066C76.6611 12.066 75.3741 10.823 75.3741 9.085C75.3741 7.347 76.6611 6.115 78.4541 6.115C79.4991 6.115 80.3681 6.544 80.8301 7.358L80.0271 7.875C79.6531 7.303 79.0811 7.039 78.4431 7.039C77.2991 7.039 76.4411 7.842 76.4411 9.085C76.4411 10.35 77.2991 11.142 78.4431 11.142C79.0811 11.142 79.6531 10.878 80.0271 10.306L80.8301 10.812C80.3681 11.626 79.4991 12.066 78.4541 12.066ZM84.6084 12.066C82.8594 12.066 81.5724 10.823 81.5724 9.085C81.5724 7.347 82.8594 6.115 84.6084 6.115C86.3574 6.115 87.6334 7.347 87.6334 9.085C87.6334 10.823 86.3574 12.066 84.6084 12.066ZM84.6084 11.142C85.7304 11.142 86.5664 10.328 86.5664 9.085C86.5664 7.842 85.7304 7.039 84.6084 7.039C83.4864 7.039 82.6394 7.842 82.6394 9.085C82.6394 10.328 83.4864 11.142 84.6084 11.142ZM96.3868 6.115C97.8058 6.115 98.7738 6.929 98.7738 8.645V12H97.7178V8.766C97.7178 7.622 97.1678 7.061 96.2108 7.061C95.1548 7.061 94.4618 7.732 94.4618 8.997V12H93.4058V8.766C93.4058 7.622 92.8558 7.061 91.8988 7.061C90.8428 7.061 90.1498 7.732 90.1498 8.997V12H89.0938V6.17H90.1058V7.039C90.5238 6.445 91.2388 6.115 92.1188 6.115C93.0098 6.115 93.7578 6.467 94.1428 7.193C94.5828 6.533 95.3968 6.115 96.3868 6.115ZM103.808 6.115C105.513 6.115 106.756 7.303 106.756 9.085C106.756 10.878 105.513 12.066 103.808 12.066C102.983 12.066 102.257 11.747 101.773 11.12V14.134H100.717V6.17H101.729V7.094C102.202 6.445 102.95 6.115 103.808 6.115ZM103.72 11.142C104.842 11.142 105.689 10.328 105.689 9.085C105.689 7.853 104.842 7.039 103.72 7.039C102.609 7.039 101.762 7.853 101.762 9.085C101.762 10.328 102.609 11.142 103.72 11.142ZM110.284 6.115C111.879 6.115 112.781 6.885 112.781 8.48V12H111.78V11.23C111.428 11.758 110.779 12.066 109.866 12.066C108.546 12.066 107.71 11.362 107.71 10.35C107.71 9.415 108.315 8.645 110.053 8.645H111.725V8.436C111.725 7.545 111.208 7.028 110.163 7.028C109.47 7.028 108.766 7.27 108.315 7.655L107.875 6.863C108.48 6.379 109.349 6.115 110.284 6.115ZM110.042 11.252C110.834 11.252 111.461 10.889 111.725 10.218V9.404H110.097C109.052 9.404 108.755 9.811 108.755 10.306C108.755 10.889 109.239 11.252 110.042 11.252ZM117.848 6.115C119.267 6.115 120.268 6.929 120.268 8.645V12H119.212V8.766C119.212 7.622 118.64 7.061 117.639 7.061C116.517 7.061 115.791 7.732 115.791 8.997V12H114.735V6.17H115.747V7.05C116.176 6.456 116.924 6.115 117.848 6.115ZM125.336 6.115C126.755 6.115 127.756 6.929 127.756 8.645V12H126.7V8.766C126.7 7.622 126.128 7.061 125.127 7.061C124.005 7.061 123.279 7.732 123.279 8.997V12H122.223V3.838H123.279V6.995C123.719 6.434 124.445 6.115 125.336 6.115ZM131.833 6.115C133.428 6.115 134.33 6.885 134.33 8.48V12H133.329V11.23C132.977 11.758 132.328 12.066 131.415 12.066C130.095 12.066 129.259 11.362 129.259 10.35C129.259 9.415 129.864 8.645 131.602 8.645H133.274V8.436C133.274 7.545 132.757 7.028 131.712 7.028C131.019 7.028 130.315 7.27 129.864 7.655L129.424 6.863C130.029 6.379 130.898 6.115 131.833 6.115ZM131.591 11.252C132.383 11.252 133.01 10.889 133.274 10.218V9.404H131.646C130.601 9.404 130.304 9.811 130.304 10.306C130.304 10.889 130.788 11.252 131.591 11.252ZM137.296 7.149C137.67 6.467 138.396 6.115 139.419 6.115V7.138C139.331 7.127 139.254 7.127 139.177 7.127C138.044 7.127 137.34 7.82 137.34 9.096V12H136.284V6.17H137.296V7.149ZM145.422 12.066C144.454 12.066 143.497 11.769 143.013 11.384L143.453 10.548C143.948 10.9 144.74 11.153 145.499 11.153C146.478 11.153 146.885 10.856 146.885 10.361C146.885 9.052 143.2 10.185 143.2 7.864C143.2 6.819 144.135 6.115 145.631 6.115C146.39 6.115 147.248 6.313 147.754 6.643L147.303 7.479C146.775 7.138 146.192 7.017 145.62 7.017C144.696 7.017 144.245 7.358 144.245 7.82C144.245 9.195 147.941 8.073 147.941 10.339C147.941 11.395 146.973 12.066 145.422 12.066ZM153.639 6.17H154.695V12H153.694V11.12C153.265 11.725 152.539 12.066 151.714 12.066C150.207 12.066 149.206 11.241 149.206 9.525V6.17H150.262V9.404C150.262 10.548 150.834 11.12 151.835 11.12C152.935 11.12 153.639 10.438 153.639 9.184V6.17ZM158.828 6.115C160.423 6.115 161.325 6.885 161.325 8.48V12H160.324V11.23C159.972 11.758 159.323 12.066 158.41 12.066C157.09 12.066 156.254 11.362 156.254 10.35C156.254 9.415 156.859 8.645 158.597 8.645H160.269V8.436C160.269 7.545 159.752 7.028 158.707 7.028C158.014 7.028 157.31 7.27 156.859 7.655L156.419 6.863C157.024 6.379 157.893 6.115 158.828 6.115ZM158.586 11.252C159.378 11.252 160.005 10.889 160.269 10.218V9.404H158.641C157.596 9.404 157.299 9.811 157.299 10.306C157.299 10.889 157.783 11.252 158.586 11.252ZM171.502 9.118C171.502 9.206 171.491 9.338 171.48 9.437H166.75C166.882 10.46 167.707 11.142 168.862 11.142C169.544 11.142 170.116 10.911 170.545 10.438L171.128 11.12C170.6 11.736 169.797 12.066 168.829 12.066C166.948 12.066 165.694 10.823 165.694 9.085C165.694 7.358 166.937 6.115 168.62 6.115C170.303 6.115 171.502 7.325 171.502 9.118ZM168.62 7.006C167.608 7.006 166.86 7.688 166.75 8.678H170.49C170.38 7.699 169.643 7.006 168.62 7.006ZM175.51 12.066C173.717 12.066 172.43 10.823 172.43 9.085C172.43 7.347 173.717 6.115 175.51 6.115C176.555 6.115 177.424 6.544 177.886 7.358L177.083 7.875C176.709 7.303 176.137 7.039 175.499 7.039C174.355 7.039 173.497 7.842 173.497 9.085C173.497 10.35 174.355 11.142 175.499 11.142C176.137 11.142 176.709 10.878 177.083 10.306L177.886 10.812C177.424 11.626 176.555 12.066 175.51 12.066ZM181.664 12.066C179.915 12.066 178.628 10.823 178.628 9.085C178.628 7.347 179.915 6.115 181.664 6.115C183.413 6.115 184.689 7.347 184.689 9.085C184.689 10.823 183.413 12.066 181.664 12.066ZM181.664 11.142C182.786 11.142 183.622 10.328 183.622 9.085C183.622 7.842 182.786 7.039 181.664 7.039C180.542 7.039 179.695 7.842 179.695 9.085C179.695 10.328 180.542 11.142 181.664 11.142ZM189.262 6.115C190.681 6.115 191.682 6.929 191.682 8.645V12H190.626V8.766C190.626 7.622 190.054 7.061 189.053 7.061C187.931 7.061 187.205 7.732 187.205 8.997V12H186.149V6.17H187.161V7.05C187.59 6.456 188.338 6.115 189.262 6.115ZM196.166 12.066C194.417 12.066 193.13 10.823 193.13 9.085C193.13 7.347 194.417 6.115 196.166 6.115C197.915 6.115 199.191 7.347 199.191 9.085C199.191 10.823 197.915 12.066 196.166 12.066ZM196.166 11.142C197.288 11.142 198.124 10.328 198.124 9.085C198.124 7.842 197.288 7.039 196.166 7.039C195.044 7.039 194.197 7.842 194.197 9.085C194.197 10.328 195.044 11.142 196.166 11.142ZM207.944 6.115C209.363 6.115 210.331 6.929 210.331 8.645V12H209.275V8.766C209.275 7.622 208.725 7.061 207.768 7.061C206.712 7.061 206.019 7.732 206.019 8.997V12H204.963V8.766C204.963 7.622 204.413 7.061 203.456 7.061C202.4 7.061 201.707 7.732 201.707 8.997V12H200.651V6.17H201.663V7.039C202.081 6.445 202.796 6.115 203.676 6.115C204.567 6.115 205.315 6.467 205.7 7.193C206.14 6.533 206.954 6.115 207.944 6.115ZM212.802 5.048C212.395 5.048 212.087 4.751 212.087 4.366C212.087 3.981 212.395 3.673 212.802 3.673C213.209 3.673 213.517 3.97 213.517 4.344C213.517 4.74 213.22 5.048 212.802 5.048ZM212.274 12V6.17H213.33V12H212.274ZM217.47 6.115C219.065 6.115 219.967 6.885 219.967 8.48V12H218.966V11.23C218.614 11.758 217.965 12.066 217.052 12.066C215.732 12.066 214.896 11.362 214.896 10.35C214.896 9.415 215.501 8.645 217.239 8.645H218.911V8.436C218.911 7.545 218.394 7.028 217.349 7.028C216.656 7.028 215.952 7.27 215.501 7.655L215.061 6.863C215.666 6.379 216.535 6.115 217.47 6.115ZM217.228 11.252C218.02 11.252 218.647 10.889 218.911 10.218V9.404H217.283C216.238 9.404 215.941 9.811 215.941 10.306C215.941 10.889 216.425 11.252 217.228 11.252ZM222.185 10.559C222.603 10.559 222.9 10.878 222.9 11.307C222.9 11.527 222.856 11.692 222.713 12.099L222.196 13.628H221.503L221.91 11.989C221.635 11.89 221.448 11.637 221.448 11.307C221.448 10.867 221.767 10.559 222.185 10.559ZM230.315 10.9L230.645 11.659C230.326 11.934 229.842 12.066 229.369 12.066C228.192 12.066 227.521 11.417 227.521 10.24V7.039H226.531V6.17H227.521V4.894H228.577V6.17H230.249V7.039H228.577V10.196C228.577 10.823 228.907 11.175 229.49 11.175C229.798 11.175 230.095 11.076 230.315 10.9ZM234.226 12.066C232.477 12.066 231.19 10.823 231.19 9.085C231.19 7.347 232.477 6.115 234.226 6.115C235.975 6.115 237.251 7.347 237.251 9.085C237.251 10.823 235.975 12.066 234.226 12.066ZM234.226 11.142C235.348 11.142 236.184 10.328 236.184 9.085C236.184 7.842 235.348 7.039 234.226 7.039C233.104 7.039 232.257 7.842 232.257 9.085C232.257 10.328 233.104 11.142 234.226 11.142ZM243.155 3.838H244.211V12H243.199V11.076C242.726 11.736 241.978 12.066 241.12 12.066C239.415 12.066 238.172 10.867 238.172 9.085C238.172 7.303 239.415 6.115 241.12 6.115C241.945 6.115 242.671 6.423 243.155 7.05V3.838ZM241.208 11.142C242.319 11.142 243.166 10.328 243.166 9.085C243.166 7.842 242.319 7.039 241.208 7.039C240.086 7.039 239.239 7.842 239.239 9.085C239.239 10.328 240.086 11.142 241.208 11.142ZM248.706 12.066C246.957 12.066 245.67 10.823 245.67 9.085C245.67 7.347 246.957 6.115 248.706 6.115C250.455 6.115 251.731 7.347 251.731 9.085C251.731 10.823 250.455 12.066 248.706 12.066ZM248.706 11.142C249.828 11.142 250.664 10.328 250.664 9.085C250.664 7.842 249.828 7.039 248.706 7.039C247.584 7.039 246.737 7.842 246.737 9.085C246.737 10.328 247.584 11.142 248.706 11.142ZM263.439 6.115C264.858 6.115 265.826 6.929 265.826 8.645V12H264.77V8.766C264.77 7.622 264.22 7.061 263.263 7.061C262.207 7.061 261.514 7.732 261.514 8.997V12H260.458V8.766C260.458 7.622 259.908 7.061 258.951 7.061C257.895 7.061 257.202 7.732 257.202 8.997V12H256.146V6.17H257.158V7.039C257.576 6.445 258.291 6.115 259.171 6.115C260.062 6.115 260.81 6.467 261.195 7.193C261.635 6.533 262.449 6.115 263.439 6.115ZM270.177 4.476L269.165 5.323H268.208L269.671 3.893H270.683L272.146 5.323H271.189L270.177 4.476ZM273.07 9.118C273.07 9.206 273.059 9.338 273.048 9.437H268.318C268.45 10.46 269.275 11.142 270.43 11.142C271.112 11.142 271.684 10.911 272.113 10.438L272.696 11.12C272.168 11.736 271.365 12.066 270.397 12.066C268.516 12.066 267.262 10.823 267.262 9.085C267.262 7.358 268.505 6.115 270.188 6.115C271.871 6.115 273.07 7.325 273.07 9.118ZM270.188 7.006C269.176 7.006 268.428 7.688 268.318 8.678H272.058C271.948 7.699 271.211 7.006 270.188 7.006ZM276.208 12.066C275.24 12.066 274.283 11.769 273.799 11.384L274.239 10.548C274.734 10.9 275.526 11.153 276.285 11.153C277.264 11.153 277.671 10.856 277.671 10.361C277.671 9.052 273.986 10.185 273.986 7.864C273.986 6.819 274.921 6.115 276.417 6.115C277.176 6.115 278.034 6.313 278.54 6.643L278.089 7.479C277.561 7.138 276.978 7.017 276.406 7.017C275.482 7.017 275.031 7.358 275.031 7.82C275.031 9.195 278.727 8.073 278.727 10.339C278.727 11.395 277.759 12.066 276.208 12.066ZM286.114 6.115C287.533 6.115 288.534 6.929 288.534 8.645V12H287.478V8.766C287.478 7.622 286.906 7.061 285.905 7.061C284.783 7.061 284.057 7.732 284.057 8.997V12H283.001V6.17H284.013V7.05C284.442 6.456 285.19 6.115 286.114 6.115ZM292.182 5.323L293.678 3.893H295.02L293.172 5.323H292.182ZM293.018 12.066C291.269 12.066 289.982 10.823 289.982 9.085C289.982 7.347 291.269 6.115 293.018 6.115C294.767 6.115 296.043 7.347 296.043 9.085C296.043 10.823 294.767 12.066 293.018 12.066ZM293.018 11.142C294.14 11.142 294.976 10.328 294.976 9.085C294.976 7.842 294.14 7.039 293.018 7.039C291.896 7.039 291.049 7.842 291.049 9.085C291.049 10.328 291.896 11.142 293.018 11.142ZM299.175 12.066C298.207 12.066 297.25 11.769 296.766 11.384L297.206 10.548C297.701 10.9 298.493 11.153 299.252 11.153C300.231 11.153 300.638 10.856 300.638 10.361C300.638 9.052 296.953 10.185 296.953 7.864C296.953 6.819 297.888 6.115 299.384 6.115C300.143 6.115 301.001 6.313 301.507 6.643L301.056 7.479C300.528 7.138 299.945 7.017 299.373 7.017C298.449 7.017 297.998 7.358 297.998 7.82C297.998 9.195 301.694 8.073 301.694 10.339C301.694 11.395 300.726 12.066 299.175 12.066ZM310.412 3.838H311.468V12H310.456V11.076C309.983 11.736 309.235 12.066 308.377 12.066C306.672 12.066 305.429 10.867 305.429 9.085C305.429 7.303 306.672 6.115 308.377 6.115C309.202 6.115 309.928 6.423 310.412 7.05V3.838ZM308.465 11.142C309.576 11.142 310.423 10.328 310.423 9.085C310.423 7.842 309.576 7.039 308.465 7.039C307.343 7.039 306.496 7.842 306.496 9.085C306.496 10.328 307.343 11.142 308.465 11.142ZM313.994 5.048C313.587 5.048 313.279 4.751 313.279 4.366C313.279 3.981 313.587 3.673 313.994 3.673C314.401 3.673 314.709 3.97 314.709 4.344C314.709 4.74 314.412 5.048 313.994 5.048ZM313.466 12V6.17H314.522V12H313.466ZM318.21 12.066C317.242 12.066 316.285 11.769 315.801 11.384L316.241 10.548C316.736 10.9 317.528 11.153 318.287 11.153C319.266 11.153 319.673 10.856 319.673 10.361C319.673 9.052 315.988 10.185 315.988 7.864C315.988 6.819 316.923 6.115 318.419 6.115C319.178 6.115 320.036 6.313 320.542 6.643L320.091 7.479C319.563 7.138 318.98 7.017 318.408 7.017C317.484 7.017 317.033 7.358 317.033 7.82C317.033 9.195 320.729 8.073 320.729 10.339C320.729 11.395 319.761 12.066 318.21 12.066ZM325.14 6.115C326.845 6.115 328.088 7.303 328.088 9.085C328.088 10.878 326.845 12.066 325.14 12.066C324.315 12.066 323.589 11.747 323.105 11.12V14.134H322.049V6.17H323.061V7.094C323.534 6.445 324.282 6.115 325.14 6.115ZM325.052 11.142C326.174 11.142 327.021 10.328 327.021 9.085C327.021 7.853 326.174 7.039 325.052 7.039C323.941 7.039 323.094 7.853 323.094 9.085C323.094 10.328 323.941 11.142 325.052 11.142ZM332.044 12.066C330.295 12.066 329.008 10.823 329.008 9.085C329.008 7.347 330.295 6.115 332.044 6.115C333.793 6.115 335.069 7.347 335.069 9.085C335.069 10.823 333.793 12.066 332.044 12.066ZM332.044 11.142C333.166 11.142 334.002 10.328 334.002 9.085C334.002 7.842 333.166 7.039 332.044 7.039C330.922 7.039 330.075 7.842 330.075 9.085C330.075 10.328 330.922 11.142 332.044 11.142ZM339.642 6.115C341.061 6.115 342.062 6.929 342.062 8.645V12H341.006V8.766C341.006 7.622 340.434 7.061 339.433 7.061C338.311 7.061 337.585 7.732 337.585 8.997V12H336.529V6.17H337.541V7.05C337.97 6.456 338.718 6.115 339.642 6.115ZM344.545 5.048C344.138 5.048 343.83 4.751 343.83 4.366C343.83 3.981 344.138 3.673 344.545 3.673C344.952 3.673 345.26 3.97 345.26 4.344C345.26 4.74 344.963 5.048 344.545 5.048ZM344.017 12V6.17H345.073V12H344.017ZM350.18 6.115C351.885 6.115 353.128 7.303 353.128 9.085C353.128 10.867 351.885 12.066 350.18 12.066C349.322 12.066 348.574 11.736 348.101 11.076V12H347.089V3.838H348.145V7.05C348.629 6.423 349.355 6.115 350.18 6.115ZM350.092 11.142C351.214 11.142 352.061 10.328 352.061 9.085C352.061 7.842 351.214 7.039 350.092 7.039C348.981 7.039 348.134 7.842 348.134 9.085C348.134 10.328 348.981 11.142 350.092 11.142ZM355.115 5.048C354.708 5.048 354.4 4.751 354.4 4.366C354.4 3.981 354.708 3.673 355.115 3.673C355.522 3.673 355.83 3.97 355.83 4.344C355.83 4.74 355.533 5.048 355.115 5.048ZM354.587 12V6.17H355.643V12H354.587ZM357.659 12V3.838H358.715V12H357.659ZM361.259 5.048C360.852 5.048 360.544 4.751 360.544 4.366C360.544 3.981 360.852 3.673 361.259 3.673C361.666 3.673 361.974 3.97 361.974 4.344C361.974 4.74 361.677 5.048 361.259 5.048ZM360.731 12V6.17H361.787V12H360.731ZM364.596 11.131H368.127V12H363.243V11.318L366.686 7.039H363.309V6.17H368.039V6.863L364.596 11.131ZM371.663 6.115C373.258 6.115 374.16 6.885 374.16 8.48V12H373.159V11.23C372.807 11.758 372.158 12.066 371.245 12.066C369.925 12.066 369.089 11.362 369.089 10.35C369.089 9.415 369.694 8.645 371.432 8.645H373.104V8.436C373.104 7.545 372.587 7.028 371.542 7.028C370.849 7.028 370.145 7.27 369.694 7.655L369.254 6.863C369.859 6.379 370.728 6.115 371.663 6.115ZM371.421 11.252C372.213 11.252 372.84 10.889 373.104 10.218V9.404H371.476C370.431 9.404 370.134 9.811 370.134 10.306C370.134 10.889 370.618 11.252 371.421 11.252ZM377.126 7.149C377.5 6.467 378.226 6.115 379.249 6.115V7.138C379.161 7.127 379.084 7.127 379.007 7.127C377.874 7.127 377.17 7.82 377.17 9.096V12H376.114V6.17H377.126V7.149ZM385.766 9.118C385.766 9.206 385.755 9.338 385.744 9.437H381.014C381.146 10.46 381.971 11.142 383.126 11.142C383.808 11.142 384.38 10.911 384.809 10.438L385.392 11.12C384.864 11.736 384.061 12.066 383.093 12.066C381.212 12.066 379.958 10.823 379.958 9.085C379.958 7.358 381.201 6.115 382.884 6.115C384.567 6.115 385.766 7.325 385.766 9.118ZM382.884 7.006C381.872 7.006 381.124 7.688 381.014 8.678H384.754C384.644 7.699 383.907 7.006 382.884 7.006ZM394.525 6.115C395.944 6.115 396.912 6.929 396.912 8.645V12H395.856V8.766C395.856 7.622 395.306 7.061 394.349 7.061C393.293 7.061 392.6 7.732 392.6 8.997V12H391.544V8.766C391.544 7.622 390.994 7.061 390.037 7.061C388.981 7.061 388.288 7.732 388.288 8.997V12H387.232V6.17H388.244V7.039C388.662 6.445 389.377 6.115 390.257 6.115C391.148 6.115 391.896 6.467 392.281 7.193C392.721 6.533 393.535 6.115 394.525 6.115ZM401.385 12.066C399.636 12.066 398.349 10.823 398.349 9.085C398.349 7.347 399.636 6.115 401.385 6.115C403.134 6.115 404.41 7.347 404.41 9.085C404.41 10.823 403.134 12.066 401.385 12.066ZM401.385 11.142C402.507 11.142 403.343 10.328 403.343 9.085C403.343 7.842 402.507 7.039 401.385 7.039C400.263 7.039 399.416 7.842 399.416 9.085C399.416 10.328 400.263 11.142 401.385 11.142ZM407.542 12.066C406.574 12.066 405.617 11.769 405.133 11.384L405.573 10.548C406.068 10.9 406.86 11.153 407.619 11.153C408.598 11.153 409.005 10.856 409.005 10.361C409.005 9.052 405.32 10.185 405.32 7.864C405.32 6.819 406.255 6.115 407.751 6.115C408.51 6.115 409.368 6.313 409.874 6.643L409.423 7.479C408.895 7.138 408.312 7.017 407.74 7.017C406.816 7.017 406.365 7.358 406.365 7.82C406.365 9.195 410.061 8.073 410.061 10.339C410.061 11.395 409.093 12.066 407.542 12.066ZM416.832 12.066C415.083 12.066 413.796 10.823 413.796 9.085C413.796 7.347 415.083 6.115 416.832 6.115C418.581 6.115 419.857 7.347 419.857 9.085C419.857 10.823 418.581 12.066 416.832 12.066ZM416.832 11.142C417.954 11.142 418.79 10.328 418.79 9.085C418.79 7.842 417.954 7.039 416.832 7.039C415.71 7.039 414.863 7.842 414.863 9.085C414.863 10.328 415.71 11.142 416.832 11.142ZM425.284 7.149C425.658 6.467 426.384 6.115 427.407 6.115V7.138C427.319 7.127 427.242 7.127 427.165 7.127C426.032 7.127 425.328 7.82 425.328 9.096V12H424.272V6.17H425.284V7.149ZM433.923 9.118C433.923 9.206 433.912 9.338 433.901 9.437H429.171C429.303 10.46 430.128 11.142 431.283 11.142C431.965 11.142 432.537 10.911 432.966 10.438L433.549 11.12C433.021 11.736 432.218 12.066 431.25 12.066C429.369 12.066 428.115 10.823 428.115 9.085C428.115 7.358 429.358 6.115 431.041 6.115C432.724 6.115 433.923 7.325 433.923 9.118ZM431.041 7.006C430.029 7.006 429.281 7.688 429.171 8.678H432.911C432.801 7.699 432.064 7.006 431.041 7.006ZM435.39 12V3.838H436.446V12H435.39ZM440.585 6.115C442.18 6.115 443.082 6.885 443.082 8.48V12H442.081V11.23C441.729 11.758 441.08 12.066 440.167 12.066C438.847 12.066 438.011 11.362 438.011 10.35C438.011 9.415 438.616 8.645 440.354 8.645H442.026V8.436C442.026 7.545 441.509 7.028 440.464 7.028C439.771 7.028 439.067 7.27 438.616 7.655L438.176 6.863C438.781 6.379 439.65 6.115 440.585 6.115ZM440.343 11.252C441.135 11.252 441.762 10.889 442.026 10.218V9.404H440.398C439.353 9.404 439.056 9.811 439.056 10.306C439.056 10.889 439.54 11.252 440.343 11.252ZM447.984 10.9L448.314 11.659C447.995 11.934 447.511 12.066 447.038 12.066C445.861 12.066 445.19 11.417 445.19 10.24V7.039H444.2V6.17H445.19V4.894H446.246V6.17H447.918V7.039H446.246V10.196C446.246 10.823 446.576 11.175 447.159 11.175C447.467 11.175 447.764 11.076 447.984 10.9ZM451.058 5.323L452.554 3.893H453.896L452.048 5.323H451.058ZM451.894 12.066C450.145 12.066 448.858 10.823 448.858 9.085C448.858 7.347 450.145 6.115 451.894 6.115C453.643 6.115 454.919 7.347 454.919 9.085C454.919 10.823 453.643 12.066 451.894 12.066ZM451.894 11.142C453.016 11.142 453.852 10.328 453.852 9.085C453.852 7.842 453.016 7.039 451.894 7.039C450.772 7.039 449.925 7.842 449.925 9.085C449.925 10.328 450.772 11.142 451.894 11.142ZM457.392 7.149C457.766 6.467 458.492 6.115 459.515 6.115V7.138C459.427 7.127 459.35 7.127 459.273 7.127C458.14 7.127 457.436 7.82 457.436 9.096V12H456.38V6.17H457.392V7.149ZM461.344 5.048C460.937 5.048 460.629 4.751 460.629 4.366C460.629 3.981 460.937 3.673 461.344 3.673C461.751 3.673 462.059 3.97 462.059 4.344C462.059 4.74 461.762 5.048 461.344 5.048ZM460.816 12V6.17H461.872V12H460.816ZM466.386 12.066C464.637 12.066 463.35 10.823 463.35 9.085C463.35 7.347 464.637 6.115 466.386 6.115C468.135 6.115 469.411 7.347 469.411 9.085C469.411 10.823 468.135 12.066 466.386 12.066ZM466.386 11.142C467.508 11.142 468.344 10.328 468.344 9.085C468.344 7.842 467.508 7.039 466.386 7.039C465.264 7.039 464.417 7.842 464.417 9.085C464.417 10.328 465.264 11.142 466.386 11.142ZM479.501 4.3H480.601V12H479.699L475.079 6.258V12H473.979V4.3H474.881L479.501 10.042V4.3ZM484.006 11.043H488.494V12H482.906V4.3H488.34V5.257H484.006V7.622H487.867V8.557H484.006V11.043ZM496.294 12H495.029L492.719 8.821L490.442 12H489.177L492.07 8.051L489.353 4.3H490.607L492.763 7.259L494.897 4.3H496.096L493.379 8.018L496.294 12ZM497.69 12.066C497.283 12.066 496.942 11.747 496.942 11.307C496.942 10.867 497.283 10.559 497.69 10.559C498.086 10.559 498.416 10.867 498.416 11.307C498.416 11.747 498.086 12.066 497.69 12.066ZM508.559 4.3H509.659V12H508.757L504.137 6.258V12H503.037V4.3H503.939L508.559 10.042V4.3ZM517.079 9.118C517.079 9.206 517.068 9.338 517.057 9.437H512.327C512.459 10.46 513.284 11.142 514.439 11.142C515.121 11.142 515.693 10.911 516.122 10.438L516.705 11.12C516.177 11.736 515.374 12.066 514.406 12.066C512.525 12.066 511.271 10.823 511.271 9.085C511.271 7.358 512.514 6.115 514.197 6.115C515.88 6.115 517.079 7.325 517.079 9.118ZM514.197 7.006C513.185 7.006 512.437 7.688 512.327 8.678H516.067C515.957 7.699 515.22 7.006 514.197 7.006ZM518.545 12V3.838H519.601V12H518.545ZM526.886 9.118C526.886 9.206 526.875 9.338 526.864 9.437H522.134C522.266 10.46 523.091 11.142 524.246 11.142C524.928 11.142 525.5 10.911 525.929 10.438L526.512 11.12C525.984 11.736 525.181 12.066 524.213 12.066C522.332 12.066 521.078 10.823 521.078 9.085C521.078 7.358 522.321 6.115 524.004 6.115C525.687 6.115 526.886 7.325 526.886 9.118ZM524.004 7.006C522.992 7.006 522.244 7.688 522.134 8.678H525.874C525.764 7.699 525.027 7.006 524.004 7.006ZM535.432 6.17H536.466L533.914 12H532.836L530.284 6.17H531.384L533.386 10.845L535.432 6.17ZM539.787 12.066C538.038 12.066 536.751 10.823 536.751 9.085C536.751 7.347 538.038 6.115 539.787 6.115C541.536 6.115 542.812 7.347 542.812 9.085C542.812 10.823 541.536 12.066 539.787 12.066ZM539.787 11.142C540.909 11.142 541.745 10.328 541.745 9.085C541.745 7.842 540.909 7.039 539.787 7.039C538.665 7.039 537.818 7.842 537.818 9.085C537.818 10.328 538.665 11.142 539.787 11.142ZM546.813 12.066C545.02 12.066 543.733 10.823 543.733 9.085C543.733 7.347 545.02 6.115 546.813 6.115C547.858 6.115 548.727 6.544 549.189 7.358L548.386 7.875C548.012 7.303 547.44 7.039 546.802 7.039C545.658 7.039 544.8 7.842 544.8 9.085C544.8 10.35 545.658 11.142 546.802 11.142C547.44 11.142 548.012 10.878 548.386 10.306L549.189 10.812C548.727 11.626 547.858 12.066 546.813 12.066ZM552.847 4.476L551.835 5.323H550.878L552.341 3.893H553.353L554.816 5.323H553.859L552.847 4.476ZM555.74 9.118C555.74 9.206 555.729 9.338 555.718 9.437H550.988C551.12 10.46 551.945 11.142 553.1 11.142C553.782 11.142 554.354 10.911 554.783 10.438L555.366 11.12C554.838 11.736 554.035 12.066 553.067 12.066C551.186 12.066 549.932 10.823 549.932 9.085C549.932 7.358 551.175 6.115 552.858 6.115C554.541 6.115 555.74 7.325 555.74 9.118ZM552.858 7.006C551.846 7.006 551.098 7.688 550.988 8.678H554.728C554.618 7.699 553.881 7.006 552.858 7.006ZM563.251 6.115C564.956 6.115 566.199 7.303 566.199 9.085C566.199 10.878 564.956 12.066 563.251 12.066C562.426 12.066 561.7 11.747 561.216 11.12V14.134H560.16V6.17H561.172V7.094C561.645 6.445 562.393 6.115 563.251 6.115ZM563.163 11.142C564.285 11.142 565.132 10.328 565.132 9.085C565.132 7.853 564.285 7.039 563.163 7.039C562.052 7.039 561.205 7.853 561.205 9.085C561.205 10.328 562.052 11.142 563.163 11.142ZM570.155 12.066C568.406 12.066 567.119 10.823 567.119 9.085C567.119 7.347 568.406 6.115 570.155 6.115C571.904 6.115 573.18 7.347 573.18 9.085C573.18 10.823 571.904 12.066 570.155 12.066ZM570.155 11.142C571.277 11.142 572.113 10.328 572.113 9.085C572.113 7.842 571.277 7.039 570.155 7.039C569.033 7.039 568.186 7.842 568.186 9.085C568.186 10.328 569.033 11.142 570.155 11.142ZM579.085 3.838H580.141V12H579.129V11.076C578.656 11.736 577.908 12.066 577.05 12.066C575.345 12.066 574.102 10.867 574.102 9.085C574.102 7.303 575.345 6.115 577.05 6.115C577.875 6.115 578.601 6.423 579.085 7.05V3.838ZM577.138 11.142C578.249 11.142 579.096 10.328 579.096 9.085C579.096 7.842 578.249 7.039 577.138 7.039C576.016 7.039 575.169 7.842 575.169 9.085C575.169 10.328 576.016 11.142 577.138 11.142ZM587.408 9.118C587.408 9.206 587.397 9.338 587.386 9.437H582.656C582.788 10.46 583.613 11.142 584.768 11.142C585.45 11.142 586.022 10.911 586.451 10.438L587.034 11.12C586.506 11.736 585.703 12.066 584.735 12.066C582.854 12.066 581.6 10.823 581.6 9.085C581.6 7.358 582.843 6.115 584.526 6.115C586.209 6.115 587.408 7.325 587.408 9.118ZM584.526 7.006C583.514 7.006 582.766 7.688 582.656 8.678H586.396C586.286 7.699 585.549 7.006 584.526 7.006ZM589.886 7.149C590.26 6.467 590.986 6.115 592.009 6.115V7.138C591.921 7.127 591.844 7.127 591.767 7.127C590.634 7.127 589.93 7.82 589.93 9.096V12H588.874V6.17H589.886V7.149ZM597.513 3.893L595.665 5.323H594.675L596.171 3.893H597.513ZM595.423 6.115C597.018 6.115 597.92 6.885 597.92 8.48V12H596.919V11.23C596.567 11.758 595.918 12.066 595.005 12.066C593.685 12.066 592.849 11.362 592.849 10.35C592.849 9.415 593.454 8.645 595.192 8.645H596.864V8.436C596.864 7.545 596.347 7.028 595.302 7.028C594.609 7.028 593.905 7.27 593.454 7.655L593.014 6.863C593.619 6.379 594.488 6.115 595.423 6.115ZM595.181 11.252C595.973 11.252 596.6 10.889 596.864 10.218V9.404H595.236C594.191 9.404 593.894 9.811 593.894 10.306C593.894 10.889 594.378 11.252 595.181 11.252ZM45.126 23.17H46.16L43.608 29H42.53L39.978 23.17H41.078L43.08 27.845L45.126 23.17ZM47.6735 22.048C47.2665 22.048 46.9585 21.751 46.9585 21.366C46.9585 20.981 47.2665 20.673 47.6735 20.673C48.0805 20.673 48.3885 20.97 48.3885 21.344C48.3885 21.74 48.0915 22.048 47.6735 22.048ZM47.1455 29V23.17H48.2015V29H47.1455ZM51.8898 29.066C50.9218 29.066 49.9648 28.769 49.4808 28.384L49.9208 27.548C50.4158 27.9 51.2078 28.153 51.9668 28.153C52.9458 28.153 53.3528 27.856 53.3528 27.361C53.3528 26.052 49.6678 27.185 49.6678 24.864C49.6678 23.819 50.6028 23.115 52.0988 23.115C52.8578 23.115 53.7158 23.313 54.2218 23.643L53.7708 24.479C53.2428 24.138 52.6598 24.017 52.0878 24.017C51.1638 24.017 50.7128 24.358 50.7128 24.82C50.7128 26.195 54.4088 25.073 54.4088 27.339C54.4088 28.395 53.4408 29.066 51.8898 29.066ZM60.1065 23.17H61.1625V29H60.1615V28.12C59.7325 28.725 59.0065 29.066 58.1815 29.066C56.6745 29.066 55.6735 28.241 55.6735 26.525V23.17H56.7295V26.404C56.7295 27.548 57.3015 28.12 58.3025 28.12C59.4025 28.12 60.1065 27.438 60.1065 26.184V23.17ZM65.2959 23.115C66.8909 23.115 67.7929 23.885 67.7929 25.48V29H66.7919V28.23C66.4399 28.758 65.7909 29.066 64.8779 29.066C63.5579 29.066 62.7219 28.362 62.7219 27.35C62.7219 26.415 63.3269 25.645 65.0649 25.645H66.7369V25.436C66.7369 24.545 66.2199 24.028 65.1749 24.028C64.4819 24.028 63.7779 24.27 63.3269 24.655L62.8869 23.863C63.4919 23.379 64.3609 23.115 65.2959 23.115ZM65.0539 28.252C65.8459 28.252 66.4729 27.889 66.7369 27.218V26.404H65.1089C64.0639 26.404 63.7669 26.811 63.7669 27.306C63.7669 27.889 64.2509 28.252 65.0539 28.252ZM69.7471 29V20.838H70.8031V29H69.7471ZM73.3474 22.048C72.9404 22.048 72.6324 21.751 72.6324 21.366C72.6324 20.981 72.9404 20.673 73.3474 20.673C73.7544 20.673 74.0624 20.97 74.0624 21.344C74.0624 21.74 73.7654 22.048 73.3474 22.048ZM72.8194 29V23.17H73.8754V29H72.8194ZM76.6836 28.131H80.2146V29H75.3306V28.318L78.7736 24.039H75.3966V23.17H80.1266V23.863L76.6836 28.131ZM83.751 23.115C85.346 23.115 86.248 23.885 86.248 25.48V29H85.247V28.23C84.895 28.758 84.246 29.066 83.333 29.066C82.013 29.066 81.177 28.362 81.177 27.35C81.177 26.415 81.782 25.645 83.52 25.645H85.192V25.436C85.192 24.545 84.675 24.028 83.63 24.028C82.937 24.028 82.233 24.27 81.782 24.655L81.342 23.863C81.947 23.379 82.816 23.115 83.751 23.115ZM83.509 28.252C84.301 28.252 84.928 27.889 85.192 27.218V26.404H83.564C82.519 26.404 82.222 26.811 82.222 27.306C82.222 27.889 82.706 28.252 83.509 28.252ZM89.2142 24.149C89.5882 23.467 90.3142 23.115 91.3372 23.115V24.138C91.2492 24.127 91.1722 24.127 91.0952 24.127C89.9622 24.127 89.2582 24.82 89.2582 26.096V29H88.2022V23.17H89.2142V24.149ZM97.34 29.066C96.372 29.066 95.415 28.769 94.931 28.384L95.371 27.548C95.866 27.9 96.658 28.153 97.417 28.153C98.396 28.153 98.803 27.856 98.803 27.361C98.803 26.052 95.118 27.185 95.118 24.864C95.118 23.819 96.053 23.115 97.549 23.115C98.308 23.115 99.166 23.313 99.672 23.643L99.221 24.479C98.693 24.138 98.11 24.017 97.538 24.017C96.614 24.017 96.163 24.358 96.163 24.82C96.163 26.195 99.859 25.073 99.859 27.339C99.859 28.395 98.891 29.066 97.34 29.066ZM105.557 23.17H106.613V29H105.612V28.12C105.183 28.725 104.457 29.066 103.632 29.066C102.125 29.066 101.124 28.241 101.124 26.525V23.17H102.18V26.404C102.18 27.548 102.752 28.12 103.753 28.12C104.853 28.12 105.557 27.438 105.557 26.184V23.17ZM110.746 23.115C112.341 23.115 113.243 23.885 113.243 25.48V29H112.242V28.23C111.89 28.758 111.241 29.066 110.328 29.066C109.008 29.066 108.172 28.362 108.172 27.35C108.172 26.415 108.777 25.645 110.515 25.645H112.187V25.436C112.187 24.545 111.67 24.028 110.625 24.028C109.932 24.028 109.228 24.27 108.777 24.655L108.337 23.863C108.942 23.379 109.811 23.115 110.746 23.115ZM110.504 28.252C111.296 28.252 111.923 27.889 112.187 27.218V26.404H110.559C109.514 26.404 109.217 26.811 109.217 27.306C109.217 27.889 109.701 28.252 110.504 28.252ZM123.42 26.118C123.42 26.206 123.409 26.338 123.398 26.437H118.668C118.8 27.46 119.625 28.142 120.78 28.142C121.462 28.142 122.034 27.911 122.463 27.438L123.046 28.12C122.518 28.736 121.715 29.066 120.747 29.066C118.866 29.066 117.612 27.823 117.612 26.085C117.612 24.358 118.855 23.115 120.538 23.115C122.221 23.115 123.42 24.325 123.42 26.118ZM120.538 24.006C119.526 24.006 118.778 24.688 118.668 25.678H122.408C122.298 24.699 121.561 24.006 120.538 24.006ZM127.428 29.066C125.635 29.066 124.348 27.823 124.348 26.085C124.348 24.347 125.635 23.115 127.428 23.115C128.473 23.115 129.342 23.544 129.804 24.358L129.001 24.875C128.627 24.303 128.055 24.039 127.417 24.039C126.273 24.039 125.415 24.842 125.415 26.085C125.415 27.35 126.273 28.142 127.417 28.142C128.055 28.142 128.627 27.878 129.001 27.306L129.804 27.812C129.342 28.626 128.473 29.066 127.428 29.066ZM133.582 29.066C131.833 29.066 130.546 27.823 130.546 26.085C130.546 24.347 131.833 23.115 133.582 23.115C135.331 23.115 136.607 24.347 136.607 26.085C136.607 27.823 135.331 29.066 133.582 29.066ZM133.582 28.142C134.704 28.142 135.54 27.328 135.54 26.085C135.54 24.842 134.704 24.039 133.582 24.039C132.46 24.039 131.613 24.842 131.613 26.085C131.613 27.328 132.46 28.142 133.582 28.142ZM141.18 23.115C142.599 23.115 143.6 23.929 143.6 25.645V29H142.544V25.766C142.544 24.622 141.972 24.061 140.971 24.061C139.849 24.061 139.123 24.732 139.123 25.997V29H138.067V23.17H139.079V24.05C139.508 23.456 140.256 23.115 141.18 23.115ZM148.084 29.066C146.335 29.066 145.048 27.823 145.048 26.085C145.048 24.347 146.335 23.115 148.084 23.115C149.833 23.115 151.109 24.347 151.109 26.085C151.109 27.823 149.833 29.066 148.084 29.066ZM148.084 28.142C149.206 28.142 150.042 27.328 150.042 26.085C150.042 24.842 149.206 24.039 148.084 24.039C146.962 24.039 146.115 24.842 146.115 26.085C146.115 27.328 146.962 28.142 148.084 28.142ZM159.862 23.115C161.281 23.115 162.249 23.929 162.249 25.645V29H161.193V25.766C161.193 24.622 160.643 24.061 159.686 24.061C158.63 24.061 157.937 24.732 157.937 25.997V29H156.881V25.766C156.881 24.622 156.331 24.061 155.374 24.061C154.318 24.061 153.625 24.732 153.625 25.997V29H152.569V23.17H153.581V24.039C153.999 23.445 154.714 23.115 155.594 23.115C156.485 23.115 157.233 23.467 157.618 24.193C158.058 23.533 158.872 23.115 159.862 23.115ZM164.72 22.048C164.313 22.048 164.005 21.751 164.005 21.366C164.005 20.981 164.313 20.673 164.72 20.673C165.127 20.673 165.435 20.97 165.435 21.344C165.435 21.74 165.138 22.048 164.72 22.048ZM164.192 29V23.17H165.248V29H164.192ZM169.388 23.115C170.983 23.115 171.885 23.885 171.885 25.48V29H170.884V28.23C170.532 28.758 169.883 29.066 168.97 29.066C167.65 29.066 166.814 28.362 166.814 27.35C166.814 26.415 167.419 25.645 169.157 25.645H170.829V25.436C170.829 24.545 170.312 24.028 169.267 24.028C168.574 24.028 167.87 24.27 167.419 24.655L166.979 23.863C167.584 23.379 168.453 23.115 169.388 23.115ZM169.146 28.252C169.938 28.252 170.565 27.889 170.829 27.218V26.404H169.201C168.156 26.404 167.859 26.811 167.859 27.306C167.859 27.889 168.343 28.252 169.146 28.252ZM184.086 23.115C185.505 23.115 186.473 23.929 186.473 25.645V29H185.417V25.766C185.417 24.622 184.867 24.061 183.91 24.061C182.854 24.061 182.161 24.732 182.161 25.997V29H181.105V25.766C181.105 24.622 180.555 24.061 179.598 24.061C178.542 24.061 177.849 24.732 177.849 25.997V29H176.793V23.17H177.805V24.039C178.223 23.445 178.938 23.115 179.818 23.115C180.709 23.115 181.457 23.467 181.842 24.193C182.282 23.533 183.096 23.115 184.086 23.115ZM193.717 26.118C193.717 26.206 193.706 26.338 193.695 26.437H188.965C189.097 27.46 189.922 28.142 191.077 28.142C191.759 28.142 192.331 27.911 192.76 27.438L193.343 28.12C192.815 28.736 192.012 29.066 191.044 29.066C189.163 29.066 187.909 27.823 187.909 26.085C187.909 24.358 189.152 23.115 190.835 23.115C192.518 23.115 193.717 24.325 193.717 26.118ZM190.835 24.006C189.823 24.006 189.075 24.688 188.965 25.678H192.705C192.595 24.699 191.858 24.006 190.835 24.006ZM198.297 23.115C199.716 23.115 200.717 23.929 200.717 25.645V29H199.661V25.766C199.661 24.622 199.089 24.061 198.088 24.061C196.966 24.061 196.24 24.732 196.24 25.997V29H195.184V23.17H196.196V24.05C196.625 23.456 197.373 23.115 198.297 23.115ZM204.343 29.066C203.375 29.066 202.418 28.769 201.934 28.384L202.374 27.548C202.869 27.9 203.661 28.153 204.42 28.153C205.399 28.153 205.806 27.856 205.806 27.361C205.806 26.052 202.121 27.185 202.121 24.864C202.121 23.819 203.056 23.115 204.552 23.115C205.311 23.115 206.169 23.313 206.675 23.643L206.224 24.479C205.696 24.138 205.113 24.017 204.541 24.017C203.617 24.017 203.166 24.358 203.166 24.82C203.166 26.195 206.862 25.073 206.862 27.339C206.862 28.395 205.894 29.066 204.343 29.066ZM210.305 23.115C211.9 23.115 212.802 23.885 212.802 25.48V29H211.801V28.23C211.449 28.758 210.8 29.066 209.887 29.066C208.567 29.066 207.731 28.362 207.731 27.35C207.731 26.415 208.336 25.645 210.074 25.645H211.746V25.436C211.746 24.545 211.229 24.028 210.184 24.028C209.491 24.028 208.787 24.27 208.336 24.655L207.896 23.863C208.501 23.379 209.37 23.115 210.305 23.115ZM210.063 28.252C210.855 28.252 211.482 27.889 211.746 27.218V26.404H210.118C209.073 26.404 208.776 26.811 208.776 27.306C208.776 27.889 209.26 28.252 210.063 28.252ZM214.756 29V20.838H215.812V29H214.756ZM226.051 26.118C226.051 26.206 226.04 26.338 226.029 26.437H221.299C221.431 27.46 222.256 28.142 223.411 28.142C224.093 28.142 224.665 27.911 225.094 27.438L225.677 28.12C225.149 28.736 224.346 29.066 223.378 29.066C221.497 29.066 220.243 27.823 220.243 26.085C220.243 24.358 221.486 23.115 223.169 23.115C224.852 23.115 226.051 24.325 226.051 26.118ZM223.169 24.006C222.157 24.006 221.409 24.688 221.299 25.678H225.039C224.929 24.699 224.192 24.006 223.169 24.006ZM232.969 29.066C231.22 29.066 229.933 27.823 229.933 26.085C229.933 24.347 231.22 23.115 232.969 23.115C234.718 23.115 235.994 24.347 235.994 26.085C235.994 27.823 234.718 29.066 232.969 29.066ZM232.969 28.142C234.091 28.142 234.927 27.328 234.927 26.085C234.927 24.842 234.091 24.039 232.969 24.039C231.847 24.039 231 24.842 231 26.085C231 27.328 231.847 28.142 232.969 28.142ZM239.126 29.066C238.158 29.066 237.201 28.769 236.717 28.384L237.157 27.548C237.652 27.9 238.444 28.153 239.203 28.153C240.182 28.153 240.589 27.856 240.589 27.361C240.589 26.052 236.904 27.185 236.904 24.864C236.904 23.819 237.839 23.115 239.335 23.115C240.094 23.115 240.952 23.313 241.458 23.643L241.007 24.479C240.479 24.138 239.896 24.017 239.324 24.017C238.4 24.017 237.949 24.358 237.949 24.82C237.949 26.195 241.645 25.073 241.645 27.339C241.645 28.395 240.677 29.066 239.126 29.066ZM248.46 29.066C246.667 29.066 245.38 27.823 245.38 26.085C245.38 24.347 246.667 23.115 248.46 23.115C249.505 23.115 250.374 23.544 250.836 24.358L250.033 24.875C249.659 24.303 249.087 24.039 248.449 24.039C247.305 24.039 246.447 24.842 246.447 26.085C246.447 27.35 247.305 28.142 248.449 28.142C249.087 28.142 249.659 27.878 250.033 27.306L250.836 27.812C250.374 28.626 249.505 29.066 248.46 29.066ZM253.215 24.149C253.589 23.467 254.315 23.115 255.338 23.115V24.138C255.25 24.127 255.173 24.127 255.096 24.127C253.963 24.127 253.259 24.82 253.259 26.096V29H252.203V23.17H253.215V24.149ZM260.975 20.893L259.127 22.323H258.137L259.633 20.893H260.975ZM261.855 26.118C261.855 26.206 261.844 26.338 261.833 26.437H257.103C257.235 27.46 258.06 28.142 259.215 28.142C259.897 28.142 260.469 27.911 260.898 27.438L261.481 28.12C260.953 28.736 260.15 29.066 259.182 29.066C257.301 29.066 256.047 27.823 256.047 26.085C256.047 24.358 257.29 23.115 258.973 23.115C260.656 23.115 261.855 24.325 261.855 26.118ZM258.973 24.006C257.961 24.006 257.213 24.688 257.103 25.678H260.843C260.733 24.699 259.996 24.006 258.973 24.006ZM267.765 20.838H268.821V29H267.809V28.076C267.336 28.736 266.588 29.066 265.73 29.066C264.025 29.066 262.782 27.867 262.782 26.085C262.782 24.303 264.025 23.115 265.73 23.115C266.555 23.115 267.281 23.423 267.765 24.05V20.838ZM265.818 28.142C266.929 28.142 267.776 27.328 267.776 26.085C267.776 24.842 266.929 24.039 265.818 24.039C264.696 24.039 263.849 24.842 263.849 26.085C263.849 27.328 264.696 28.142 265.818 28.142ZM271.347 22.048C270.94 22.048 270.632 21.751 270.632 21.366C270.632 20.981 270.94 20.673 271.347 20.673C271.754 20.673 272.062 20.97 272.062 21.344C272.062 21.74 271.765 22.048 271.347 22.048ZM270.819 29V23.17H271.875V29H270.819ZM276.84 27.9L277.17 28.659C276.851 28.934 276.367 29.066 275.894 29.066C274.717 29.066 274.046 28.417 274.046 27.24V24.039H273.056V23.17H274.046V21.894H275.102V23.17H276.774V24.039H275.102V27.196C275.102 27.823 275.432 28.175 276.015 28.175C276.323 28.175 276.62 28.076 276.84 27.9ZM280.75 29.066C279.001 29.066 277.714 27.823 277.714 26.085C277.714 24.347 279.001 23.115 280.75 23.115C282.499 23.115 283.775 24.347 283.775 26.085C283.775 27.823 282.499 29.066 280.75 29.066ZM280.75 28.142C281.872 28.142 282.708 27.328 282.708 26.085C282.708 24.842 281.872 24.039 280.75 24.039C279.628 24.039 278.781 24.842 278.781 26.085C278.781 27.328 279.628 28.142 280.75 28.142ZM286.907 29.066C285.939 29.066 284.982 28.769 284.498 28.384L284.938 27.548C285.433 27.9 286.225 28.153 286.984 28.153C287.963 28.153 288.37 27.856 288.37 27.361C288.37 26.052 284.685 27.185 284.685 24.864C284.685 23.819 285.62 23.115 287.116 23.115C287.875 23.115 288.733 23.313 289.239 23.643L288.788 24.479C288.26 24.138 287.677 24.017 287.105 24.017C286.181 24.017 285.73 24.358 285.73 24.82C285.73 26.195 289.426 25.073 289.426 27.339C289.426 28.395 288.458 29.066 286.907 29.066ZM298.144 20.838H299.2V29H298.188V28.076C297.715 28.736 296.967 29.066 296.109 29.066C294.404 29.066 293.161 27.867 293.161 26.085C293.161 24.303 294.404 23.115 296.109 23.115C296.934 23.115 297.66 23.423 298.144 24.05V20.838ZM296.197 28.142C297.308 28.142 298.155 27.328 298.155 26.085C298.155 24.842 297.308 24.039 296.197 24.039C295.075 24.039 294.228 24.842 294.228 26.085C294.228 27.328 295.075 28.142 296.197 28.142ZM306.467 26.118C306.467 26.206 306.456 26.338 306.445 26.437H301.715C301.847 27.46 302.672 28.142 303.827 28.142C304.509 28.142 305.081 27.911 305.51 27.438L306.093 28.12C305.565 28.736 304.762 29.066 303.794 29.066C301.913 29.066 300.659 27.823 300.659 26.085C300.659 24.358 301.902 23.115 303.585 23.115C305.268 23.115 306.467 24.325 306.467 26.118ZM303.585 24.006C302.573 24.006 301.825 24.688 301.715 25.678H305.455C305.345 24.699 304.608 24.006 303.585 24.006ZM316.157 26.118C316.157 26.206 316.146 26.338 316.135 26.437H311.405C311.537 27.46 312.362 28.142 313.517 28.142C314.199 28.142 314.771 27.911 315.2 27.438L315.783 28.12C315.255 28.736 314.452 29.066 313.484 29.066C311.603 29.066 310.349 27.823 310.349 26.085C310.349 24.358 311.592 23.115 313.275 23.115C314.958 23.115 316.157 24.325 316.157 26.118ZM313.275 24.006C312.263 24.006 311.515 24.688 311.405 25.678H315.145C315.035 24.699 314.298 24.006 313.275 24.006ZM320.736 23.115C322.155 23.115 323.156 23.929 323.156 25.645V29H322.1V25.766C322.1 24.622 321.528 24.061 320.527 24.061C319.405 24.061 318.679 24.732 318.679 25.997V29H317.623V23.17H318.635V24.05C319.064 23.456 319.812 23.115 320.736 23.115ZM330.412 26.118C330.412 26.206 330.401 26.338 330.39 26.437H325.66C325.792 27.46 326.617 28.142 327.772 28.142C328.454 28.142 329.026 27.911 329.455 27.438L330.038 28.12C329.51 28.736 328.707 29.066 327.739 29.066C325.858 29.066 324.604 27.823 324.604 26.085C324.604 24.358 325.847 23.115 327.53 23.115C329.213 23.115 330.412 24.325 330.412 26.118ZM327.53 24.006C326.518 24.006 325.77 24.688 325.66 25.678H329.4C329.29 24.699 328.553 24.006 327.53 24.006ZM332.89 24.149C333.264 23.467 333.99 23.115 335.013 23.115V24.138C334.925 24.127 334.848 24.127 334.771 24.127C333.638 24.127 332.934 24.82 332.934 26.096V29H331.878V23.17H332.89V24.149ZM340.837 23.17H341.838V28.208C341.838 30.265 340.793 31.2 338.813 31.2C337.746 31.2 336.668 30.903 336.03 30.331L336.536 29.517C337.075 29.979 337.922 30.276 338.78 30.276C340.155 30.276 340.782 29.638 340.782 28.318V27.856C340.276 28.461 339.517 28.758 338.681 28.758C336.998 28.758 335.722 27.614 335.722 25.931C335.722 24.248 336.998 23.115 338.681 23.115C339.55 23.115 340.342 23.434 340.837 24.072V23.17ZM338.802 27.834C339.968 27.834 340.804 27.053 340.804 25.931C340.804 24.798 339.968 24.039 338.802 24.039C337.625 24.039 336.789 24.798 336.789 25.931C336.789 27.053 337.625 27.834 338.802 27.834ZM344.383 22.048C343.976 22.048 343.668 21.751 343.668 21.366C343.668 20.981 343.976 20.673 344.383 20.673C344.79 20.673 345.098 20.97 345.098 21.344C345.098 21.74 344.801 22.048 344.383 22.048ZM343.855 29V23.17H344.911V29H343.855ZM349.051 23.115C350.646 23.115 351.548 23.885 351.548 25.48V29H350.547V28.23C350.195 28.758 349.546 29.066 348.633 29.066C347.313 29.066 346.477 28.362 346.477 27.35C346.477 26.415 347.082 25.645 348.82 25.645H350.492V25.436C350.492 24.545 349.975 24.028 348.93 24.028C348.237 24.028 347.533 24.27 347.082 24.655L346.642 23.863C347.247 23.379 348.116 23.115 349.051 23.115ZM348.809 28.252C349.601 28.252 350.228 27.889 350.492 27.218V26.404H348.864C347.819 26.404 347.522 26.811 347.522 27.306C347.522 27.889 348.006 28.252 348.809 28.252ZM353.766 27.559C354.184 27.559 354.481 27.878 354.481 28.307C354.481 28.527 354.437 28.692 354.294 29.099L353.777 30.628H353.084L353.491 28.989C353.216 28.89 353.029 28.637 353.029 28.307C353.029 27.867 353.348 27.559 353.766 27.559ZM362.039 23.115C363.744 23.115 364.987 24.303 364.987 26.085C364.987 27.878 363.744 29.066 362.039 29.066C361.214 29.066 360.488 28.747 360.004 28.12V31.134H358.948V23.17H359.96V24.094C360.433 23.445 361.181 23.115 362.039 23.115ZM361.951 28.142C363.073 28.142 363.92 27.328 363.92 26.085C363.92 24.853 363.073 24.039 361.951 24.039C360.84 24.039 359.993 24.853 359.993 26.085C359.993 27.328 360.84 28.142 361.951 28.142ZM368.516 23.115C370.111 23.115 371.013 23.885 371.013 25.48V29H370.012V28.23C369.66 28.758 369.011 29.066 368.098 29.066C366.778 29.066 365.942 28.362 365.942 27.35C365.942 26.415 366.547 25.645 368.285 25.645H369.957V25.436C369.957 24.545 369.44 24.028 368.395 24.028C367.702 24.028 366.998 24.27 366.547 24.655L366.107 23.863C366.712 23.379 367.581 23.115 368.516 23.115ZM368.274 28.252C369.066 28.252 369.693 27.889 369.957 27.218V26.404H368.329C367.284 26.404 366.987 26.811 366.987 27.306C366.987 27.889 367.471 28.252 368.274 28.252ZM373.979 24.149C374.353 23.467 375.079 23.115 376.102 23.115V24.138C376.014 24.127 375.937 24.127 375.86 24.127C374.727 24.127 374.023 24.82 374.023 26.096V29H372.967V23.17H373.979V24.149ZM379.516 23.115C381.111 23.115 382.013 23.885 382.013 25.48V29H381.012V28.23C380.66 28.758 380.011 29.066 379.098 29.066C377.778 29.066 376.942 28.362 376.942 27.35C376.942 26.415 377.547 25.645 379.285 25.645H380.957V25.436C380.957 24.545 380.44 24.028 379.395 24.028C378.702 24.028 377.998 24.27 377.547 24.655L377.107 23.863C377.712 23.379 378.581 23.115 379.516 23.115ZM379.274 28.252C380.066 28.252 380.693 27.889 380.957 27.218V26.404H379.329C378.284 26.404 377.987 26.811 377.987 27.306C377.987 27.889 378.471 28.252 379.274 28.252ZM394.214 23.115C395.633 23.115 396.601 23.929 396.601 25.645V29H395.545V25.766C395.545 24.622 394.995 24.061 394.038 24.061C392.982 24.061 392.289 24.732 392.289 25.997V29H391.233V25.766C391.233 24.622 390.683 24.061 389.726 24.061C388.67 24.061 387.977 24.732 387.977 25.997V29H386.921V23.17H387.933V24.039C388.351 23.445 389.066 23.115 389.946 23.115C390.837 23.115 391.585 23.467 391.97 24.193C392.41 23.533 393.224 23.115 394.214 23.115ZM400.667 23.115C402.262 23.115 403.164 23.885 403.164 25.48V29H402.163V28.23C401.811 28.758 401.162 29.066 400.249 29.066C398.929 29.066 398.093 28.362 398.093 27.35C398.093 26.415 398.698 25.645 400.436 25.645H402.108V25.436C402.108 24.545 401.591 24.028 400.546 24.028C399.853 24.028 399.149 24.27 398.698 24.655L398.258 23.863C398.863 23.379 399.732 23.115 400.667 23.115ZM400.425 28.252C401.217 28.252 401.844 27.889 402.108 27.218V26.404H400.48C399.435 26.404 399.138 26.811 399.138 27.306C399.138 27.889 399.622 28.252 400.425 28.252ZM405.646 22.048C405.239 22.048 404.931 21.751 404.931 21.366C404.931 20.981 405.239 20.673 405.646 20.673C406.053 20.673 406.361 20.97 406.361 21.344C406.361 21.74 406.064 22.048 405.646 22.048ZM405.118 29V23.17H406.174V29H405.118ZM409.862 29.066C408.894 29.066 407.937 28.769 407.453 28.384L407.893 27.548C408.388 27.9 409.18 28.153 409.939 28.153C410.918 28.153 411.325 27.856 411.325 27.361C411.325 26.052 407.64 27.185 407.64 24.864C407.64 23.819 408.575 23.115 410.071 23.115C410.83 23.115 411.688 23.313 412.194 23.643L411.743 24.479C411.215 24.138 410.632 24.017 410.06 24.017C409.136 24.017 408.685 24.358 408.685 24.82C408.685 26.195 412.381 25.073 412.381 27.339C412.381 28.395 411.413 29.066 409.862 29.066ZM418.778 23.115C420.373 23.115 421.275 23.885 421.275 25.48V29H420.274V28.23C419.922 28.758 419.273 29.066 418.36 29.066C417.04 29.066 416.204 28.362 416.204 27.35C416.204 26.415 416.809 25.645 418.547 25.645H420.219V25.436C420.219 24.545 419.702 24.028 418.657 24.028C417.964 24.028 417.26 24.27 416.809 24.655L416.369 23.863C416.974 23.379 417.843 23.115 418.778 23.115ZM418.536 28.252C419.328 28.252 419.955 27.889 420.219 27.218V26.404H418.591C417.546 26.404 417.249 26.811 417.249 27.306C417.249 27.889 417.733 28.252 418.536 28.252ZM425.803 29.066C424.01 29.066 422.723 27.823 422.723 26.085C422.723 24.347 424.01 23.115 425.803 23.115C426.848 23.115 427.717 23.544 428.179 24.358L427.376 24.875C427.002 24.303 426.43 24.039 425.792 24.039C424.648 24.039 423.79 24.842 423.79 26.085C423.79 27.35 424.648 28.142 425.792 28.142C426.43 28.142 427.002 27.878 427.376 27.306L428.179 27.812C427.717 28.626 426.848 29.066 425.803 29.066ZM434.729 26.118C434.729 26.206 434.718 26.338 434.707 26.437H429.977C430.109 27.46 430.934 28.142 432.089 28.142C432.771 28.142 433.343 27.911 433.772 27.438L434.355 28.12C433.827 28.736 433.024 29.066 432.056 29.066C430.175 29.066 428.921 27.823 428.921 26.085C428.921 24.358 430.164 23.115 431.847 23.115C433.53 23.115 434.729 24.325 434.729 26.118ZM431.847 24.006C430.835 24.006 430.087 24.688 429.977 25.678H433.717C433.607 24.699 432.87 24.006 431.847 24.006ZM437.867 29.066C436.899 29.066 435.942 28.769 435.458 28.384L435.898 27.548C436.393 27.9 437.185 28.153 437.944 28.153C438.923 28.153 439.33 27.856 439.33 27.361C439.33 26.052 435.645 27.185 435.645 24.864C435.645 23.819 436.58 23.115 438.076 23.115C438.835 23.115 439.693 23.313 440.199 23.643L439.748 24.479C439.22 24.138 438.637 24.017 438.065 24.017C437.141 24.017 436.69 24.358 436.69 24.82C436.69 26.195 440.386 25.073 440.386 27.339C440.386 28.395 439.418 29.066 437.867 29.066ZM443.378 29.066C442.41 29.066 441.453 28.769 440.969 28.384L441.409 27.548C441.904 27.9 442.696 28.153 443.455 28.153C444.434 28.153 444.841 27.856 444.841 27.361C444.841 26.052 441.156 27.185 441.156 24.864C441.156 23.819 442.091 23.115 443.587 23.115C444.346 23.115 445.204 23.313 445.71 23.643L445.259 24.479C444.731 24.138 444.148 24.017 443.576 24.017C442.652 24.017 442.201 24.358 442.201 24.82C442.201 26.195 445.897 25.073 445.897 27.339C445.897 28.395 444.929 29.066 443.378 29.066ZM452.486 26.118C452.486 26.206 452.475 26.338 452.464 26.437H447.734C447.866 27.46 448.691 28.142 449.846 28.142C450.528 28.142 451.1 27.911 451.529 27.438L452.112 28.12C451.584 28.736 450.781 29.066 449.813 29.066C447.932 29.066 446.678 27.823 446.678 26.085C446.678 24.358 447.921 23.115 449.604 23.115C451.287 23.115 452.486 24.325 452.486 26.118ZM449.604 24.006C448.592 24.006 447.844 24.688 447.734 25.678H451.474C451.364 24.699 450.627 24.006 449.604 24.006ZM459.029 23.115C460.624 23.115 461.526 23.885 461.526 25.48V29H460.525V28.23C460.173 28.758 459.524 29.066 458.611 29.066C457.291 29.066 456.455 28.362 456.455 27.35C456.455 26.415 457.06 25.645 458.798 25.645H460.47V25.436C460.47 24.545 459.953 24.028 458.908 24.028C458.215 24.028 457.511 24.27 457.06 24.655L456.62 23.863C457.225 23.379 458.094 23.115 459.029 23.115ZM458.787 28.252C459.579 28.252 460.206 27.889 460.47 27.218V26.404H458.842C457.797 26.404 457.5 26.811 457.5 27.306C457.5 27.889 457.984 28.252 458.787 28.252ZM469.856 29V27.845L469.746 27.592V25.524C469.746 25.1573 469.632 24.8713 469.405 24.666C469.185 24.4607 468.844 24.358 468.382 24.358C468.066 24.358 467.755 24.4093 467.447 24.512C467.146 24.6073 466.889 24.7393 466.677 24.908L466.061 23.709C466.383 23.4817 466.772 23.3057 467.227 23.181C467.681 23.0563 468.143 22.994 468.613 22.994C469.515 22.994 470.215 23.2067 470.714 23.632C471.212 24.0573 471.462 24.721 471.462 25.623V29H469.856ZM468.052 29.088C467.59 29.088 467.194 29.011 466.864 28.857C466.534 28.6957 466.281 28.4793 466.105 28.208C465.929 27.9367 465.841 27.6323 465.841 27.295C465.841 26.943 465.925 26.635 466.094 26.371C466.27 26.107 466.545 25.9017 466.919 25.755C467.293 25.601 467.78 25.524 468.382 25.524H469.955V26.525H468.569C468.165 26.525 467.887 26.591 467.733 26.723C467.586 26.855 467.513 27.02 467.513 27.218C467.513 27.438 467.597 27.614 467.766 27.746C467.942 27.8707 468.18 27.933 468.481 27.933C468.767 27.933 469.023 27.867 469.251 27.735C469.478 27.5957 469.643 27.394 469.746 27.13L470.01 27.922C469.885 28.3033 469.658 28.593 469.328 28.791C468.998 28.989 468.572 29.088 468.052 29.088ZM467.788 22.323L469.273 20.739H471.121L469.13 22.323H467.788ZM473.015 29V23.082H474.654V24.754L474.423 24.27C474.599 23.852 474.881 23.5367 475.27 23.324C475.658 23.104 476.131 22.994 476.689 22.994V24.578C476.615 24.5707 476.549 24.567 476.491 24.567C476.432 24.5597 476.37 24.556 476.304 24.556C475.834 24.556 475.453 24.6917 475.16 24.963C474.874 25.227 474.731 25.6413 474.731 26.206V29H473.015ZM480.603 29.088C479.928 29.088 479.334 28.956 478.821 28.692C478.315 28.428 477.923 28.0687 477.644 27.614C477.365 27.152 477.226 26.6277 477.226 26.041C477.226 25.447 477.362 24.9227 477.633 24.468C477.912 24.006 478.289 23.6467 478.766 23.39C479.243 23.126 479.782 22.994 480.383 22.994C480.962 22.994 481.483 23.1187 481.945 23.368C482.414 23.61 482.785 23.962 483.056 24.424C483.327 24.8787 483.463 25.425 483.463 26.063C483.463 26.129 483.459 26.206 483.452 26.294C483.445 26.3747 483.437 26.4517 483.43 26.525H478.623V25.524H482.528L481.868 25.821C481.868 25.513 481.806 25.2453 481.681 25.018C481.556 24.7907 481.384 24.6147 481.164 24.49C480.944 24.358 480.687 24.292 480.394 24.292C480.101 24.292 479.84 24.358 479.613 24.49C479.393 24.6147 479.221 24.7943 479.096 25.029C478.971 25.2563 478.909 25.5277 478.909 25.843V26.107C478.909 26.4297 478.979 26.7157 479.118 26.965C479.265 27.207 479.466 27.394 479.723 27.526C479.987 27.6507 480.295 27.713 480.647 27.713C480.962 27.713 481.237 27.6653 481.472 27.57C481.714 27.4747 481.934 27.3317 482.132 27.141L483.045 28.131C482.774 28.439 482.433 28.6773 482.022 28.846C481.611 29.0073 481.138 29.088 480.603 29.088ZM488.074 29V27.845L487.964 27.592V25.524C487.964 25.1573 487.851 24.8713 487.623 24.666C487.403 24.4607 487.062 24.358 486.6 24.358C486.285 24.358 485.973 24.4093 485.665 24.512C485.365 24.6073 485.108 24.7393 484.895 24.908L484.279 23.709C484.602 23.4817 484.991 23.3057 485.445 23.181C485.9 23.0563 486.362 22.994 486.831 22.994C487.733 22.994 488.434 23.2067 488.932 23.632C489.431 24.0573 489.68 24.721 489.68 25.623V29H488.074ZM486.27 29.088C485.808 29.088 485.412 29.011 485.082 28.857C484.752 28.6957 484.499 28.4793 484.323 28.208C484.147 27.9367 484.059 27.6323 484.059 27.295C484.059 26.943 484.144 26.635 484.312 26.371C484.488 26.107 484.763 25.9017 485.137 25.755C485.511 25.601 485.999 25.524 486.6 25.524H488.173V26.525H486.787C486.384 26.525 486.105 26.591 485.951 26.723C485.805 26.855 485.731 27.02 485.731 27.218C485.731 27.438 485.816 27.614 485.984 27.746C486.16 27.8707 486.399 27.933 486.699 27.933C486.985 27.933 487.242 27.867 487.469 27.735C487.697 27.5957 487.862 27.394 487.964 27.13L488.228 27.922C488.104 28.3033 487.876 28.593 487.546 28.791C487.216 28.989 486.791 29.088 486.27 29.088ZM496.89 29.088C496.332 29.088 495.83 28.9633 495.383 28.714C494.935 28.4573 494.58 28.1017 494.316 27.647C494.059 27.1923 493.931 26.657 493.931 26.041C493.931 25.4177 494.059 24.8787 494.316 24.424C494.58 23.9693 494.935 23.6173 495.383 23.368C495.83 23.1187 496.332 22.994 496.89 22.994C497.388 22.994 497.825 23.104 498.199 23.324C498.573 23.544 498.862 23.8777 499.068 24.325C499.273 24.7723 499.376 25.3443 499.376 26.041C499.376 26.7303 499.277 27.3023 499.079 27.757C498.881 28.2043 498.595 28.538 498.221 28.758C497.854 28.978 497.41 29.088 496.89 29.088ZM497.187 27.68C497.465 27.68 497.718 27.614 497.946 27.482C498.173 27.35 498.353 27.163 498.485 26.921C498.624 26.6717 498.694 26.3783 498.694 26.041C498.694 25.6963 498.624 25.403 498.485 25.161C498.353 24.919 498.173 24.732 497.946 24.6C497.718 24.468 497.465 24.402 497.187 24.402C496.901 24.402 496.644 24.468 496.417 24.6C496.189 24.732 496.006 24.919 495.867 25.161C495.735 25.403 495.669 25.6963 495.669 26.041C495.669 26.3783 495.735 26.6717 495.867 26.921C496.006 27.163 496.189 27.35 496.417 27.482C496.644 27.614 496.901 27.68 497.187 27.68ZM498.738 29V27.79L498.771 26.03L498.661 24.281V20.838H500.377V29H498.738ZM504.781 29.088C504.15 29.088 503.589 28.956 503.098 28.692C502.614 28.428 502.229 28.0687 501.943 27.614C501.664 27.152 501.525 26.6277 501.525 26.041C501.525 25.447 501.664 24.9227 501.943 24.468C502.229 24.006 502.614 23.6467 503.098 23.39C503.589 23.126 504.15 22.994 504.781 22.994C505.404 22.994 505.962 23.126 506.453 23.39C506.944 23.6467 507.329 24.0023 507.608 24.457C507.887 24.9117 508.026 25.4397 508.026 26.041C508.026 26.6277 507.887 27.152 507.608 27.614C507.329 28.0687 506.944 28.428 506.453 28.692C505.962 28.956 505.404 29.088 504.781 29.088ZM504.781 27.68C505.067 27.68 505.324 27.614 505.551 27.482C505.778 27.35 505.958 27.163 506.09 26.921C506.222 26.6717 506.288 26.3783 506.288 26.041C506.288 25.6963 506.222 25.403 506.09 25.161C505.958 24.919 505.778 24.732 505.551 24.6C505.324 24.468 505.067 24.402 504.781 24.402C504.495 24.402 504.238 24.468 504.011 24.6C503.784 24.732 503.6 24.919 503.461 25.161C503.329 25.403 503.263 25.6963 503.263 26.041C503.263 26.3783 503.329 26.6717 503.461 26.921C503.6 27.163 503.784 27.35 504.011 27.482C504.238 27.614 504.495 27.68 504.781 27.68ZM515.148 29.088C514.51 29.088 513.942 28.9597 513.443 28.703C512.944 28.439 512.552 28.076 512.266 27.614C511.987 27.152 511.848 26.6277 511.848 26.041C511.848 25.447 511.987 24.9227 512.266 24.468C512.552 24.006 512.944 23.6467 513.443 23.39C513.942 23.126 514.51 22.994 515.148 22.994C515.771 22.994 516.314 23.126 516.776 23.39C517.238 23.6467 517.579 24.017 517.799 24.501L516.468 25.216C516.314 24.9373 516.12 24.732 515.885 24.6C515.658 24.468 515.408 24.402 515.137 24.402C514.844 24.402 514.58 24.468 514.345 24.6C514.11 24.732 513.923 24.919 513.784 25.161C513.652 25.403 513.586 25.6963 513.586 26.041C513.586 26.3857 513.652 26.679 513.784 26.921C513.923 27.163 514.11 27.35 514.345 27.482C514.58 27.614 514.844 27.68 515.137 27.68C515.408 27.68 515.658 27.6177 515.885 27.493C516.12 27.361 516.314 27.152 516.468 26.866L517.799 27.592C517.579 28.0687 517.238 28.439 516.776 28.703C516.314 28.9597 515.771 29.088 515.148 29.088ZM518.755 29V20.838H520.471V29H518.755ZM522.063 29V23.082H523.779V29H522.063ZM522.921 22.257C522.606 22.257 522.349 22.1653 522.151 21.982C521.953 21.7987 521.854 21.5713 521.854 21.3C521.854 21.0287 521.953 20.8013 522.151 20.618C522.349 20.4347 522.606 20.343 522.921 20.343C523.237 20.343 523.493 20.431 523.691 20.607C523.889 20.7757 523.988 20.9957 523.988 21.267C523.988 21.553 523.889 21.7913 523.691 21.982C523.501 22.1653 523.244 22.257 522.921 22.257ZM528.309 29.088C527.634 29.088 527.04 28.956 526.527 28.692C526.021 28.428 525.629 28.0687 525.35 27.614C525.071 27.152 524.932 26.6277 524.932 26.041C524.932 25.447 525.068 24.9227 525.339 24.468C525.618 24.006 525.995 23.6467 526.472 23.39C526.949 23.126 527.488 22.994 528.089 22.994C528.668 22.994 529.189 23.1187 529.651 23.368C530.12 23.61 530.491 23.962 530.762 24.424C531.033 24.8787 531.169 25.425 531.169 26.063C531.169 26.129 531.165 26.206 531.158 26.294C531.151 26.3747 531.143 26.4517 531.136 26.525H526.329V25.524H530.234L529.574 25.821C529.574 25.513 529.512 25.2453 529.387 25.018C529.262 24.7907 529.09 24.6147 528.87 24.49C528.65 24.358 528.393 24.292 528.1 24.292C527.807 24.292 527.546 24.358 527.319 24.49C527.099 24.6147 526.927 24.7943 526.802 25.029C526.677 25.2563 526.615 25.5277 526.615 25.843V26.107C526.615 26.4297 526.685 26.7157 526.824 26.965C526.971 27.207 527.172 27.394 527.429 27.526C527.693 27.6507 528.001 27.713 528.353 27.713C528.668 27.713 528.943 27.6653 529.178 27.57C529.42 27.4747 529.64 27.3317 529.838 27.141L530.751 28.131C530.48 28.439 530.139 28.6773 529.728 28.846C529.317 29.0073 528.844 29.088 528.309 29.088ZM535.909 22.994C536.378 22.994 536.796 23.0893 537.163 23.28C537.537 23.4633 537.83 23.7493 538.043 24.138C538.255 24.5193 538.362 25.0107 538.362 25.612V29H536.646V25.876C536.646 25.3993 536.539 25.0473 536.327 24.82C536.121 24.5927 535.828 24.479 535.447 24.479C535.175 24.479 534.93 24.5377 534.71 24.655C534.497 24.765 534.328 24.9373 534.204 25.172C534.086 25.4067 534.028 25.7073 534.028 26.074V29H532.312V23.082H533.951V24.721L533.643 24.226C533.855 23.83 534.16 23.5257 534.556 23.313C534.952 23.1003 535.403 22.994 535.909 22.994ZM542.337 29.088C541.64 29.088 541.098 28.912 540.709 28.56C540.32 28.2007 540.126 27.669 540.126 26.965V21.773H541.842V26.943C541.842 27.1923 541.908 27.3867 542.04 27.526C542.172 27.658 542.352 27.724 542.579 27.724C542.85 27.724 543.081 27.6507 543.272 27.504L543.734 28.714C543.558 28.8387 543.345 28.934 543.096 29C542.854 29.0587 542.601 29.088 542.337 29.088ZM539.213 24.534V23.214H543.316V24.534H539.213ZM547.452 29.088C546.777 29.088 546.183 28.956 545.67 28.692C545.164 28.428 544.771 28.0687 544.493 27.614C544.214 27.152 544.075 26.6277 544.075 26.041C544.075 25.447 544.21 24.9227 544.482 24.468C544.76 24.006 545.138 23.6467 545.615 23.39C546.091 23.126 546.63 22.994 547.232 22.994C547.811 22.994 548.332 23.1187 548.794 23.368C549.263 23.61 549.633 23.962 549.905 24.424C550.176 24.8787 550.312 25.425 550.312 26.063C550.312 26.129 550.308 26.206 550.301 26.294C550.293 26.3747 550.286 26.4517 550.279 26.525H545.472V25.524H549.377L548.717 25.821C548.717 25.513 548.654 25.2453 548.53 25.018C548.405 24.7907 548.233 24.6147 548.013 24.49C547.793 24.358 547.536 24.292 547.243 24.292C546.949 24.292 546.689 24.358 546.462 24.49C546.242 24.6147 546.069 24.7943 545.945 25.029C545.82 25.2563 545.758 25.5277 545.758 25.843V26.107C545.758 26.4297 545.827 26.7157 545.967 26.965C546.113 27.207 546.315 27.394 546.572 27.526C546.836 27.6507 547.144 27.713 547.496 27.713C547.811 27.713 548.086 27.6653 548.321 27.57C548.563 27.4747 548.783 27.3317 548.981 27.141L549.894 28.131C549.622 28.439 549.281 28.6773 548.871 28.846C548.46 29.0073 547.987 29.088 547.452 29.088ZM551.916 29.066C551.509 29.066 551.168 28.747 551.168 28.307C551.168 27.867 551.509 27.559 551.916 27.559C552.312 27.559 552.642 27.867 552.642 28.307C552.642 28.747 552.312 29.066 551.916 29.066Z" fill="black"/>
<path d="M465.434 30.375H550.664V30.925H465.434V30.375Z" fill="black"/>
<circle cx="12.5" cy="16.5" r="12.5" fill="#6FCF97"/>
<path d="M12.1713 22.2258V12.6258L13.2213 13.6758H10.0713V11.7258H14.6013V22.2258H12.1713Z" fill="white"/>
</svg>
