<svg width="170" height="169" viewBox="0 0 170 169" fill="none" xmlns="http://www.w3.org/2000/svg">
<circle cx="85.4751" cy="84.5" r="84.5" fill="#EDEDED"/>
<mask id="mask0_211_190" style="mask-type:alpha" maskUnits="userSpaceOnUse" x="0" y="0" width="170" height="169">
<circle cx="85.4751" cy="84.5" r="84.5" fill="#EDEDED"/>
</mask>
<g mask="url(#mask0_211_190)">
<path d="M122.946 98.8464C122.946 98.8464 125.71 98.0601 125.4 92.7708C125.09 87.4816 120.547 86.6965 117.275 87.3151C114.004 87.9336 116.394 87.4362 117.275 87.3151C121.544 86.7281 122.803 85.7424 122.731 79.1904C122.017 76.7496 120.345 75.1247 118.86 74.1123C117.189 72.9738 115.122 73.6477 113.107 73.4763C113.582 72.2336 112.543 75.0339 116.984 69.888C117.393 66.2254 117.207 63.7309 113.57 60.6073C107.791 59.2208 109.622 59.4239 102.582 59.3811C94.3442 61.1955 91.4114 60.2901 97.6363 53.8282C106.804 42.1699 106.045 27.2291 104.495 23.4965C102.946 19.7639 97.0909 20.5982 95.9558 25.0477C94.2852 29.7577 91.9776 34.2169 89.0973 38.3011C86.7052 41.5721 83.9387 44.5524 80.8538 47.1813C76.8082 50.8704 72.2018 53.8532 67.2288 56.0316C60.8608 58.8211 54.6326 62.313 50.4135 67.8386L44.6096 75.4399L58.9038 119.458L81.45 119.544C103.702 115.718 103.647 112.901 115.275 111.784C126.33 108.639 126.806 106.113 127.283 103.588C127.211 97.0355 122.946 98.8464 122.946 98.8464Z" fill="#BDBDBD"/>
<path d="M59.0622 119.532L45.7652 74.8529L-9.84583 93.1L6.35683 157.343L59.0622 119.532Z" fill="#71F697"/>
<path d="M41.1129 33.8585C41.5924 32.5945 43.3961 32.6403 43.8108 33.9271L46.2518 41.5014C46.3797 41.8983 46.6745 42.2195 47.0589 42.3811L54.3106 45.428C55.511 45.9324 55.4674 47.6481 54.2429 48.0909L46.8459 50.7656C46.4537 50.9074 46.1431 51.2133 45.9952 51.6032L43.1726 59.0438C42.6931 60.3078 40.8894 60.2619 40.4747 58.9752L38.0337 51.4009C37.9058 51.004 37.611 50.6827 37.2266 50.5212L29.975 47.4743C28.7745 46.9699 28.8181 45.2541 30.0426 44.8114L37.4397 42.1366C37.8318 41.9949 38.1425 41.689 38.2904 41.2991L41.1129 33.8585Z" fill="#D9D9D9"/>
<path d="M97.4489 131.7C97.9284 130.436 99.7321 130.482 100.147 131.768L102.588 139.343C102.716 139.74 103.01 140.061 103.395 140.222L110.647 143.269C111.847 143.774 111.803 145.49 110.579 145.932L103.182 148.607C102.79 148.749 102.479 149.055 102.331 149.445L99.5085 156.885C99.029 158.149 97.2254 158.103 96.8107 156.817L94.3696 149.242C94.2417 148.845 93.947 148.524 93.5626 148.363L86.3109 145.316C85.1104 144.811 85.154 143.096 86.3786 142.653L93.7756 139.978C94.1677 139.836 94.4784 139.53 94.6263 139.141L97.4489 131.7Z" fill="#D9D9D9"/>
<path d="M141.92 45.7179C142.4 44.4539 144.203 44.4997 144.618 45.7865L147.059 53.3608C147.187 53.7577 147.482 54.079 147.866 54.2405L155.118 57.2874C156.318 57.7918 156.275 59.5075 155.05 59.9503L147.653 62.625C147.261 62.7668 146.95 63.0727 146.803 63.4626L143.98 70.9032C143.5 72.1672 141.697 72.1214 141.282 70.8346L138.841 63.2603C138.713 62.8634 138.418 62.5421 138.034 62.3806L130.782 59.3337C129.582 58.8293 129.625 57.1135 130.85 56.6708L138.247 53.996C138.639 53.8543 138.95 53.5484 139.098 53.1585L141.92 45.7179Z" fill="#D9D9D9"/>
</g>
</svg>
